<svg width="214" height="63" viewBox="0 0 214 63" fill="none" xmlns="http://www.w3.org/2000/svg">
<path d="M36.7052 25.2674C36.7052 27.539 36.2668 30.3612 35.5603 33.4242C34.5093 37.9902 32.8725 43.0839 31.2357 47.6721C30.869 48.6963 30.507 49.6932 30.1443 50.6548C30.0458 50.923 29.9473 51.1826 29.8494 51.4422C29.152 53.2891 28.4853 54.984 27.904 56.4375C27.6489 57.0723 27.4121 57.6581 27.1883 58.195C26.3207 60.306 25.7616 61.5893 25.7616 61.5893H10.9421C10.9421 61.5893 10.383 60.306 9.51532 58.195C9.29158 57.6587 9.05474 57.0728 8.79968 56.442C8.28102 55.1405 7.69063 53.6472 7.07348 52.024C6.9841 51.7872 6.89472 51.5498 6.80078 51.3039C6.36696 50.1458 5.91548 48.9292 5.46799 47.6727C3.83118 43.0845 2.19436 37.9907 1.14338 33.4247C0.405537 30.2228 -0.0413784 27.28 0.00302903 24.9594C0.00758363 24.6463 0.0206751 24.3468 0.0480028 24.0559C0.110629 23.3044 0.235882 22.6383 0.4323 22.0661C1.58632 18.7299 3.3165 16.8203 5.07857 15.3982C6.21893 14.4679 7.3775 13.7437 8.40115 12.9609C8.40571 12.9609 8.40571 12.9609 8.40571 12.9609C9.70264 11.968 10.7849 10.8857 11.344 9.17771C11.4243 8.92265 11.5006 8.64994 11.5586 8.35958L11.5495 8.33737L8.15065 1.12402H28.5473L25.153 8.33737L25.1439 8.35958C25.202 8.6505 25.2737 8.92322 25.3585 9.17771C25.8994 10.8367 26.9327 11.9059 28.1801 12.8715C28.1801 12.8715 28.1801 12.8715 28.1847 12.8715C28.6139 13.2023 29.0614 13.5245 29.5266 13.8462C29.5266 13.8507 29.5311 13.8507 29.5311 13.8507C31.9149 15.5274 34.6562 17.3971 36.2702 22.0655C36.494 22.7186 36.6278 23.4923 36.6773 24.3685V24.373C36.6967 24.6594 36.7052 24.9588 36.7052 25.2674Z" fill="#D18729"/>
<path opacity="0.27" d="M36.6792 24.3728V24.3682C36.6302 23.4915 36.4959 22.7183 36.2721 22.0653C34.6575 17.3962 31.9162 15.5272 29.533 13.8505C29.533 13.8505 29.5285 13.8505 29.5285 13.8459C29.0633 13.5237 28.6164 13.202 28.1866 12.8713C28.182 12.8713 28.182 12.8713 28.182 12.8713C26.934 11.9051 25.9013 10.8365 25.3604 9.17746C25.2756 8.92241 25.2038 8.64969 25.1458 8.35933L25.1549 8.33713L28.5492 1.12378H17.6848C20.8992 6.41054 22.7506 12.6173 22.7506 19.2568C22.7506 31.8964 16.0405 42.9681 5.98853 49.1066C6.26294 49.8558 6.53565 50.5937 6.80153 51.3036C6.89547 51.5496 6.98484 51.7864 7.07423 52.0238C7.69138 53.6469 8.28177 55.1409 8.80042 56.4418C9.05548 57.0726 9.29232 57.6584 9.51607 58.1947C10.3837 60.3058 10.9428 61.589 10.9428 61.589H25.7629C25.7629 61.589 26.322 60.3058 27.1897 58.1947C27.4134 57.6578 27.6503 57.0726 27.9053 56.4372C28.4866 54.9837 29.1527 53.2888 29.8507 51.4419C29.9492 51.1823 30.0477 50.9233 30.1456 50.6546C30.5077 49.693 30.8698 48.6961 31.237 47.6719C32.8738 43.0837 34.5106 37.9899 35.5616 33.4239C36.2681 30.3604 36.7065 27.5388 36.7065 25.2672C36.7059 24.9586 36.6974 24.6591 36.6792 24.3728Z" fill="#8C4906"/>
<path d="M35.5635 33.4243C34.5125 37.9903 32.8757 43.0841 31.2389 47.6723H5.4712C3.83439 43.0841 2.19758 37.9903 1.14661 33.4243H35.5635Z" fill="#4E9353"/>
<path d="M29.5277 13.8455C29.2681 13.7919 28.9777 13.7561 28.6333 13.7561C26.2227 13.7561 26.2227 15.4242 23.8168 15.4242C21.4108 15.4242 21.4108 13.7561 19.0094 13.7561C16.6034 13.7561 16.6034 15.4242 14.1974 15.4242C11.7869 15.4242 11.7869 13.7561 9.38093 13.7561C7.15828 13.7561 6.98862 15.1782 5.0791 15.3974C6.21946 14.4671 7.37804 13.743 8.40169 12.9601C8.40624 12.9601 8.40624 12.9601 8.40624 12.9601C8.6835 12.893 8.99663 12.8525 9.37239 12.8525C11.7784 12.8525 11.7784 14.5207 14.1889 14.5207C16.5949 14.5207 16.5949 12.8525 19.0008 12.8525C21.4068 12.8525 21.4068 14.5207 23.8082 14.5207C26.0622 14.5207 26.2096 13.0626 28.1818 12.8708C28.1818 12.8708 28.1818 12.8708 28.1863 12.8708C28.6156 13.2015 29.0625 13.5238 29.5277 13.8455Z" fill="#AA5C07"/>
<path d="M36.7056 25.2673C35.6637 25.7501 35.1809 26.6223 33.4456 26.6223C31.0397 26.6223 31.0397 24.9542 28.6337 24.9542C26.2232 24.9542 26.2232 26.6223 23.8172 26.6223C21.4112 26.6223 21.4112 24.9542 19.0098 24.9542C16.6038 24.9542 16.6038 26.6223 14.1979 26.6223C11.7873 26.6223 11.7873 24.9542 9.38136 24.9542C6.97538 24.9542 6.97538 26.6223 4.56941 26.6223C2.24826 26.6223 2.168 25.0704 0.00341797 24.9588C0.00797258 24.6456 0.0210641 24.3462 0.0483917 24.0552C2.15945 24.1896 2.25737 25.7143 4.56087 25.7143C6.97139 25.7143 6.9714 24.0461 9.37282 24.0461C11.7788 24.0461 11.7788 25.7143 14.1893 25.7143C16.5953 25.7143 16.5953 24.0461 19.0013 24.0461C21.4072 24.0461 21.4072 25.7143 23.8086 25.7143C26.2192 25.7143 26.2192 24.0461 28.6251 24.0461C31.0311 24.0461 31.0311 25.7143 33.4416 25.7143C35.1633 25.7143 35.6506 24.8557 36.6794 24.3729C36.697 24.6593 36.7056 24.9588 36.7056 25.2673Z" fill="#AA5C07"/>
<path d="M30.1449 50.6547C30.0464 50.9228 29.9479 51.1825 29.8499 51.4421C29.5192 51.3305 29.1258 51.2587 28.6333 51.2587C26.2228 51.2587 26.2228 52.9269 23.8168 52.9269C21.4108 52.9269 21.4108 51.2587 19.0094 51.2587C16.6034 51.2587 16.6034 52.9269 14.1975 52.9269C11.7869 52.9269 11.7869 51.2587 9.38097 51.2587C8.24516 51.2587 7.64565 51.6299 7.07348 52.0233C6.9841 51.7865 6.89472 51.5491 6.80078 51.3032C7.46291 50.8562 8.05728 50.3552 9.37243 50.3552C11.7784 50.3552 11.7784 52.0233 14.1889 52.0233C16.5949 52.0233 16.5949 50.3552 19.0009 50.3552C21.4068 50.3552 21.4068 52.0233 23.8083 52.0233C26.2188 52.0233 26.2188 50.3552 28.6248 50.3552C29.2772 50.3552 29.7515 50.4759 30.1449 50.6547Z" fill="#AA5C07"/>
<path d="M11.3448 9.17723C11.4251 8.92217 11.5014 8.64947 11.5595 8.35912L11.5504 8.33691H25.1544L25.1453 8.35912C25.2034 8.65004 25.2751 8.92274 25.36 9.17723H11.3448Z" fill="#AA5C07"/>
<path d="M4.27906 17.9165L2.49365 19.7019L4.27905 21.4873L6.06446 19.7019L4.27906 17.9165Z" fill="#FFB115"/>
<path d="M11.3158 17.9165L9.5304 19.7019L11.3158 21.4873L13.1012 19.7019L11.3158 17.9165Z" fill="#FFB115"/>
<path d="M18.3514 17.9165L16.566 19.7019L18.3514 21.4873L20.1368 19.7019L18.3514 17.9165Z" fill="#FFB115"/>
<path d="M25.3882 17.9172L23.6028 19.7026L25.3882 21.488L27.1736 19.7026L25.3882 17.9172Z" fill="#FFB115"/>
<path d="M32.4238 17.9172L30.6384 19.7026L32.4238 21.488L34.2092 19.7026L32.4238 17.9172Z" fill="#FFB115"/>
<path d="M3.81433 31.9131C4.45797 31.9131 4.97974 31.3913 4.97974 30.7477C4.97974 30.104 4.45797 29.5823 3.81433 29.5823C3.1707 29.5823 2.64893 30.104 2.64893 30.7477C2.64893 31.3913 3.1707 31.9131 3.81433 31.9131Z" fill="#FFB115"/>
<path d="M9.82635 30.7478C9.82635 31.3917 9.30427 31.9132 8.66037 31.9132C8.01646 31.9132 7.49438 31.3911 7.49438 30.7478C7.49438 30.1044 8.01646 29.5818 8.66037 29.5818C9.30427 29.5818 9.82635 30.1039 9.82635 30.7478Z" fill="#FFB115"/>
<path d="M13.5076 31.9131C14.1512 31.9131 14.673 31.3913 14.673 30.7477C14.673 30.104 14.1512 29.5823 13.5076 29.5823C12.864 29.5823 12.3422 30.104 12.3422 30.7477C12.3422 31.3913 12.864 31.9131 13.5076 31.9131Z" fill="#FFB115"/>
<path d="M19.5189 30.7478C19.5189 31.3917 18.9968 31.9132 18.3535 31.9132C17.7096 31.9132 17.1875 31.3911 17.1875 30.7478C17.1875 30.1044 17.7096 29.5818 18.3535 29.5818C18.9968 29.5818 19.5189 30.1039 19.5189 30.7478Z" fill="#FFB115"/>
<path d="M24.366 30.7478C24.366 31.3917 23.8439 31.9132 23.2 31.9132C22.5561 31.9132 22.0341 31.3911 22.0341 30.7478C22.0341 30.1044 22.5561 29.5818 23.2 29.5818C23.8445 29.5818 24.366 30.1039 24.366 30.7478Z" fill="#FFB115"/>
<path d="M28.0473 31.9131C28.6909 31.9131 29.2127 31.3913 29.2127 30.7477C29.2127 30.104 28.6909 29.5823 28.0473 29.5823C27.4036 29.5823 26.8818 30.104 26.8818 30.7477C26.8818 31.3913 27.4036 31.9131 28.0473 31.9131Z" fill="#FFB115"/>
<path d="M32.8938 31.9131C33.5374 31.9131 34.0592 31.3913 34.0592 30.7477C34.0592 30.104 33.5374 29.5823 32.8938 29.5823C32.2502 29.5823 31.7284 30.104 31.7284 30.7477C31.7284 31.3913 32.2502 31.9131 32.8938 31.9131Z" fill="#FFB115"/>
<path d="M10.6396 57.1436C10.6396 57.7249 10.1699 58.1991 9.58865 58.1991C9.56645 58.1991 9.53969 58.1991 9.51691 58.1946C9.29317 57.6583 9.05633 57.0724 8.80127 56.4416C8.9937 56.227 9.27552 56.0886 9.58808 56.0886C10.1705 56.0886 10.6396 56.5623 10.6396 57.1436Z" fill="#FFB115"/>
<path d="M15.0258 57.1442C15.0258 57.7267 14.5538 58.1986 13.9714 58.1986C13.389 58.1986 12.917 57.7267 12.917 57.1442C12.917 56.5618 13.389 56.0898 13.9714 56.0898C14.5538 56.0898 15.0258 56.5618 15.0258 57.1442Z" fill="#FFB115"/>
<path d="M19.4085 57.1442C19.4085 57.7267 18.9365 58.1986 18.3541 58.1986C17.7717 58.1986 17.2997 57.7267 17.2997 57.1442C17.2997 56.5618 17.7717 56.0898 18.3541 56.0898C18.9365 56.0898 19.4085 56.5618 19.4085 57.1442Z" fill="#FFB115"/>
<path d="M22.739 58.1986C23.3213 58.1986 23.7933 57.7266 23.7933 57.1442C23.7933 56.5619 23.3213 56.0898 22.739 56.0898C22.1566 56.0898 21.6846 56.5619 21.6846 57.1442C21.6846 57.7266 22.1566 58.1986 22.739 58.1986Z" fill="#FFB115"/>
<path d="M27.9056 56.4366C27.6506 57.0714 27.4137 57.6573 27.19 58.1942C27.1678 58.1987 27.145 58.1987 27.1228 58.1987C26.5415 58.1987 26.0673 57.7245 26.0673 57.1432C26.0673 56.5619 26.5415 56.0876 27.1228 56.0876C27.4314 56.0882 27.7132 56.222 27.9056 56.4366Z" fill="#FFB115"/>
<path d="M18.355 34.0022C15.4304 36.9268 18.355 46.2774 18.355 46.2774C18.355 46.2774 21.2796 36.9268 18.355 34.0022Z" fill="#FF9517"/>
<path d="M10.8706 34.6018C8.75782 38.1578 13.8988 46.4979 13.8988 46.4979C13.8988 46.4979 14.4266 36.7146 10.8706 34.6018Z" fill="#FF9517"/>
<path d="M3.70533 35.1064C2.46192 39.0513 9.37468 45.9942 9.37468 45.9942C9.37468 45.9942 7.65019 36.3499 3.70533 35.1064Z" fill="#FF9517"/>
<path d="M25.8367 34.6021C27.9494 38.1581 22.8084 46.4981 22.8084 46.4981C22.8084 46.4981 22.2806 36.7148 25.8367 34.6021Z" fill="#FF9517"/>
<path d="M32.9999 35.1064C34.2433 39.0513 27.3306 45.9942 27.3306 45.9942C27.3306 45.9942 29.0551 36.3499 32.9999 35.1064Z" fill="#FF9517"/>
<path d="M112.417 14.5016C105.283 12.1897 97.4615 13.1693 91.3636 17.6162C85.5316 21.8698 84.0927 28.9625 85.2926 35.7353C87.3713 47.4765 100.199 51.109 110.221 46.6258C115.176 44.4088 118.053 39.0925 118.541 33.8218C119.074 28.0614 113.946 23.038 108.787 21.2956C102.628 19.2145 97.1931 22.1943 94.9961 28.1259C92.7955 34.0656 96.1842 38.9448 102.54 39.2964C105.489 39.4604 108.416 37.4133 109.043 34.5319C109.742 31.3178 105.991 29.2414 103.576 28.3192C101.611 27.5693 100.768 30.719 102.71 31.4595C103.4 31.6974 104.046 32.0208 104.647 32.4286C105.64 34.4241 105.321 35.5818 103.688 35.9006C102.293 36.3751 100.676 35.8244 99.4406 35.1905C96.7596 33.8148 97.2775 30.9569 98.2829 28.6754C100.472 23.7106 105.485 22.7216 110.04 25.4144C111.786 26.4467 113.556 28.3122 114.64 29.9737C116.113 32.2317 115.046 35.0499 114.283 37.3395C112.931 41.3974 109.964 43.6366 105.903 44.7381C102.322 45.7095 98.2302 45.3931 94.832 43.9214C90.5808 42.0793 89.0446 38.3297 88.2783 34.0035C85.8902 20.5222 100.371 14.0189 111.551 17.642C113.555 18.2912 114.405 15.1461 112.417 14.5016Z" fill="#633103"/>
<path d="M102.622 11.1163H108.977L105.8 5.58203L102.622 11.1163Z" fill="#633103"/>
<path d="M92.9385 13.8034L98.9743 11.8149L94.2251 7.552L92.9385 13.8034Z" fill="#633103"/>
<path d="M85.7004 19.4829L90.2808 15.0782L84.1548 13.2913L85.7004 19.4829Z" fill="#633103"/>
<path d="M81.9063 27.8962L83.8444 21.8428L77.6047 23.1821L81.9063 27.8962Z" fill="#633103"/>
<path d="M82.5665 37.0361L81.8435 30.7214L76.7064 34.5086L82.5665 37.0361Z" fill="#633103"/>
<path d="M87.3388 45.7238L83.8552 40.4075L80.9679 46.0988L87.3388 45.7238Z" fill="#633103"/>
<path d="M94.7841 51.2844L89.0787 48.4827L89.4924 54.8513L94.7841 51.2844Z" fill="#633103"/>
<path d="M105.407 51.4443L99.0594 51.7619L102.509 57.131L105.407 51.4443Z" fill="#633103"/>
<path d="M115.074 47.4832L109.53 50.5907L115.008 53.8658L115.074 47.4832Z" fill="#633103"/>
<path d="M121.146 40.166L117.609 45.446L123.976 45.8866L121.146 40.166Z" fill="#633103"/>
<path d="M122.616 29.8728L122.192 36.2144L127.926 33.4139L122.616 29.8728Z" fill="#633103"/>
<path d="M116.896 20.7632L120.561 25.9553L123.249 20.1667L116.896 20.7632Z" fill="#633103"/>
<path d="M177.603 5.46802C177.603 5.46802 176.01 19.368 181.825 19.6604L177.603 23.6465C177.603 23.6465 170.655 19.0874 177.603 5.46802Z" fill="#89490A"/>
<path d="M169.549 11.8945C169.549 11.8945 171.499 27.7287 178.023 26.4991L174.408 32.0459C174.408 32.0459 165.487 28.8491 169.549 11.8945Z" fill="#89490A"/>
<path d="M189.589 15.4822C189.589 15.4822 185.591 12.2717 185.486 7.61096C185.38 2.9502 188.902 0.671875 188.902 0.671875C188.902 0.671875 183.941 1.52796 181.989 5.43614C178.884 11.6507 183.638 18.0716 183.638 18.0716L189.589 15.4822Z" fill="#89490A"/>
<path d="M203.717 5.46802C203.717 5.46802 205.309 19.368 199.495 19.6604L203.717 23.6465C203.717 23.6465 210.665 19.0874 203.717 5.46802Z" fill="#89490A"/>
<path d="M211.77 11.8945C211.77 11.8945 209.821 27.7287 203.297 26.4991L206.912 32.0459C206.912 32.0459 215.832 28.8491 211.77 11.8945Z" fill="#89490A"/>
<path d="M191.73 15.4822C191.73 15.4822 195.729 12.2717 195.834 7.61096C195.939 2.9502 192.417 0.671875 192.417 0.671875C192.417 0.671875 197.379 1.52796 199.331 5.43614C202.435 11.6507 197.682 18.0716 197.682 18.0716L191.73 15.4822Z" fill="#89490A"/>
<path d="M181.825 19.6609L177.603 23.6483C177.603 23.6483 176.213 22.7367 175.301 20.5102C175.753 19.8106 176.231 19.1472 176.74 18.5143C177.143 18.0055 177.567 17.5142 178.005 17.054C178.138 16.9125 178.275 16.771 178.413 16.6338C179.072 18.3416 180.134 19.5768 181.825 19.6609Z" fill="#663406"/>
<path d="M178.023 26.4983L174.408 32.0438C174.408 32.0438 172.903 31.5039 171.412 29.6982C171.836 27.9368 172.399 26.2551 173.084 24.6752C173.182 24.4451 173.283 24.2194 173.39 23.9937C174.58 25.7463 176.107 26.8612 178.023 26.4983Z" fill="#663406"/>
<path d="M189.588 15.4827L183.635 18.0715C183.635 18.0715 182.414 16.4248 181.617 13.9906C183.17 12.9593 184.838 12.1893 186.595 11.7161C187.808 14.053 189.588 15.4827 189.588 15.4827Z" fill="#663406"/>
<path d="M206.016 20.5101C205.105 22.7361 203.715 23.6483 203.715 23.6483L199.493 19.6609C201.183 19.5767 202.25 18.3378 202.905 16.6294C203.148 16.8726 203.388 17.1251 203.622 17.3863C204.06 17.8689 204.481 18.3734 204.883 18.8996C205.278 19.4165 205.658 19.9521 206.016 20.5101Z" fill="#663406"/>
<path d="M209.906 29.6932C208.415 31.5033 206.91 32.0432 206.91 32.0432L203.295 26.4977C205.216 26.8606 206.738 25.7451 207.933 23.9924C207.937 24.0055 207.946 24.0192 207.95 24.0323C208.18 24.5237 208.393 25.0281 208.592 25.5369C209.119 26.8606 209.561 28.2504 209.906 29.6932Z" fill="#663406"/>
<path d="M199.705 13.9863C198.904 16.4205 197.682 18.0715 197.682 18.0715L191.73 15.4827C191.73 15.4827 193.514 14.053 194.726 11.7161C196.479 12.1893 198.152 12.9593 199.705 13.9863Z" fill="#663406"/>
<path d="M178.023 26.4978L174.408 32.0433C174.408 32.0433 172.903 31.5034 171.412 29.6977C171.836 27.9363 172.399 26.2546 173.084 24.6747C173.182 24.4446 173.283 24.2189 173.39 23.9932C174.58 25.7459 176.107 26.8607 178.023 26.4978Z" fill="#663406"/>
<path d="M181.825 19.6605L177.603 23.6478C177.603 23.6478 176.213 22.7362 175.301 20.5097C175.753 19.8101 176.231 19.1467 176.74 18.5138C177.143 18.005 177.567 17.5137 178.005 17.0535C178.138 16.912 178.275 16.7705 178.413 16.6333C179.072 18.3411 180.134 19.5763 181.825 19.6605Z" fill="#663406"/>
<path d="M189.588 15.4822L183.635 18.071C183.635 18.071 182.414 16.4243 181.617 13.9901C183.17 12.9589 184.838 12.1888 186.595 11.7156C187.808 14.0525 189.588 15.4822 189.588 15.4822Z" fill="#663406"/>
<path d="M199.705 13.9863C198.904 16.4205 197.682 18.0715 197.682 18.0715L191.729 15.4827C191.729 15.4827 193.513 14.053 194.725 11.7161C196.479 12.1893 198.152 12.9593 199.705 13.9863Z" fill="#663406"/>
<path d="M206.016 20.5101C205.104 22.7361 203.715 23.6483 203.715 23.6483L199.492 19.6609C201.183 19.5767 202.249 18.3378 202.905 16.6294C203.148 16.8726 203.387 17.1251 203.622 17.3863C204.06 17.8689 204.48 18.3734 204.883 18.8996C205.277 19.4165 205.657 19.9521 206.016 20.5101Z" fill="#663406"/>
<path d="M209.906 29.6932C208.414 31.5033 206.91 32.0432 206.91 32.0432L203.294 26.4977C205.215 26.8606 206.737 25.7451 207.933 23.9924C207.937 24.0055 207.946 24.0192 207.95 24.0323C208.18 24.5237 208.393 25.0281 208.592 25.5369C209.118 26.8606 209.561 28.2504 209.906 29.6932Z" fill="#663406"/>
<path d="M204.146 51.6762C203.889 51.6768 203.743 51.665 203.743 51.665L202.731 51.582L202.952 50.5919L207.299 31.4463L208.388 32.2774C208.652 32.4788 214.838 37.2986 213.079 44.6411C211.839 49.8194 207.651 51.6706 204.146 51.6762ZM208.378 34.6493L204.921 49.8748C206.775 49.6915 210.288 48.7357 211.367 44.2302C212.455 39.6916 209.914 36.2455 208.378 34.6493Z" fill="#633103"/>
<path d="M168.249 44.7146C166.466 37.3777 172.636 32.538 172.899 32.3354L173.986 31.5005L178.396 50.6318L178.62 51.6213L177.609 51.7073C177.609 51.7073 177.464 51.7198 177.207 51.7198C173.701 51.7266 169.507 49.8891 168.249 44.7146ZM169.961 44.2987C171.054 48.8005 174.571 49.7445 176.426 49.9216L172.918 34.7078C171.387 36.309 168.858 39.7639 169.961 44.2987Z" fill="#633103"/>
<path d="M208.999 37.8439C208.999 51.2064 200.788 62.0412 190.657 62.0412C180.531 62.0412 172.319 51.2064 172.319 37.8439C172.319 33.4986 173.187 29.4215 174.71 25.8949C174.89 25.4678 175.084 25.0538 175.287 24.6447C176.071 23.0554 176.991 21.6026 178.03 20.3038C178.395 19.8412 178.778 19.3966 179.179 18.9789C182.318 15.6418 186.311 13.6472 190.656 13.6472C195.134 13.6472 199.237 15.7647 202.42 19.2825C202.817 19.7184 203.2 20.176 203.565 20.6561C204.631 22.0472 205.568 23.6103 206.348 25.3144C206.555 25.759 206.749 26.2172 206.929 26.6793C208.254 30.0201 208.999 33.8197 208.999 37.8439Z" fill="#D18729"/>
<path d="M206.929 26.6786C206.749 26.2166 206.555 25.7583 206.348 25.3138C205.569 23.6097 204.631 22.0465 203.566 20.6555C203.2 20.1754 202.817 19.7177 202.421 19.2819C199.392 15.9349 195.529 13.8592 191.305 13.6653C192.21 14.3599 193.066 15.1536 193.864 16.0359C194.261 16.4717 194.644 16.9294 195.009 17.4095C196.075 18.8005 197.012 20.3637 197.792 22.0677C197.999 22.5123 198.193 22.9706 198.373 23.4326C199.698 26.7747 200.442 30.5737 200.442 34.5979C200.442 47.9604 192.231 58.7952 182.101 58.7952C181.886 58.7952 181.673 58.7833 181.461 58.774C184.165 60.8478 187.304 62.0412 190.657 62.0412C200.788 62.0412 208.999 51.2058 208.999 37.8439C208.999 33.8197 208.254 30.02 206.929 26.6786Z" fill="#BC6B13"/>
<path d="M206.929 26.6787C202.548 25.0189 197.723 24.3586 193.117 24.2003C186.918 23.9845 180.754 24.6012 174.709 25.895C174.89 25.4679 175.084 25.0539 175.286 24.6448C181.613 23.3242 188.124 22.7207 194.557 23.1746C198.511 23.4521 202.561 24.0332 206.348 25.3145C206.555 25.7584 206.749 26.2167 206.929 26.6787Z" fill="#442103"/>
<path d="M203.565 20.6556C200.145 19.7664 196.569 19.3655 193.118 19.2464C188.05 19.0662 183.005 19.4447 178.03 20.3033C178.395 19.8406 178.778 19.3961 179.179 18.9783C184.269 18.1684 189.437 17.8597 194.558 18.2207C197.173 18.4016 199.828 18.7183 202.421 19.282C202.817 19.7178 203.2 20.1761 203.565 20.6556Z" fill="#442103"/>
<path d="M178.251 30.6143C178.251 30.6143 182.112 34.8617 187.132 30.6143C187.132 30.6143 183.271 26.3669 178.251 30.6143Z" fill="#442103"/>
<path d="M193.94 30.6143C193.94 30.6143 197.801 34.8617 202.821 30.6143C202.821 30.6143 198.959 26.3669 193.94 30.6143Z" fill="#442103"/>
<path d="M180.59 21.9692C180.59 22.3203 180.305 22.6052 179.954 22.6052C179.603 22.6052 179.318 22.3203 179.318 21.9692C179.318 21.6182 179.603 21.3333 179.954 21.3333C180.305 21.3333 180.59 21.6182 180.59 21.9692Z" fill="#E6DD64"/>
<path d="M185.92 21.2915C185.92 21.6425 185.635 21.9275 185.284 21.9275C184.933 21.9275 184.648 21.6425 184.648 21.2915C184.648 20.9398 184.933 20.6555 185.284 20.6555C185.635 20.6549 185.92 20.9398 185.92 21.2915Z" fill="#E6DD64"/>
<path d="M196.672 21.2915C196.672 20.9398 196.387 20.6555 196.036 20.6555C195.684 20.6555 195.4 20.9405 195.4 21.2915C195.4 21.6425 195.684 21.9275 196.036 21.9275C196.387 21.9275 196.672 21.6425 196.672 21.2915Z" fill="#E6DD64"/>
<path d="M202.001 21.9692C202.001 21.6182 201.716 21.3333 201.365 21.3333C201.013 21.3333 200.729 21.6182 200.729 21.9692C200.729 22.3203 201.014 22.6052 201.365 22.6052C201.716 22.6052 202.001 22.3209 202.001 21.9692Z" fill="#E6DD64"/>
<path d="M190.66 21.5828C191.011 21.5828 191.296 21.298 191.296 20.9468C191.296 20.5955 191.011 20.3108 190.66 20.3108C190.309 20.3108 190.024 20.5955 190.024 20.9468C190.024 21.298 190.309 21.5828 190.66 21.5828Z" fill="#E6DD64"/>
<path d="M190.559 30.4225V30.3882C190.557 30.3938 190.555 30.3994 190.553 30.405C190.55 30.3994 190.548 30.3938 190.547 30.3882V30.4225C185.789 42.6221 189.906 45.0351 190.547 45.0289V45.0345C190.547 45.0345 190.551 45.0326 190.553 45.0314C190.555 45.032 190.559 45.0345 190.559 45.0345C190.559 45.0345 190.558 45.0289 190.559 45.0289C191.061 45.0351 195.316 42.6221 190.559 30.4225Z" fill="#442103"/>
<path d="M205.678 40.7564H197.687C197.444 40.7564 197.247 40.5594 197.247 40.3162C197.247 40.073 197.444 39.876 197.687 39.876H205.678C205.921 39.876 206.118 40.073 206.118 40.3162C206.118 40.5594 205.921 40.7564 205.678 40.7564Z" fill="#47301F"/>
<path d="M205.102 43.4136H198.262C198.019 43.4136 197.822 43.2166 197.822 42.9734C197.822 42.7302 198.019 42.5332 198.262 42.5332H205.102C205.345 42.5332 205.542 42.7302 205.542 42.9734C205.542 43.2166 205.346 43.4136 205.102 43.4136Z" fill="#47301F"/>
<path d="M204.03 46.0694H199.338C199.094 46.0694 198.897 45.8723 198.897 45.6292C198.897 45.386 199.094 45.189 199.338 45.189H204.03C204.273 45.189 204.47 45.386 204.47 45.6292C204.47 45.8723 204.273 46.0694 204.03 46.0694Z" fill="#47301F"/>
<path d="M183.631 40.7561H175.641C175.397 40.7561 175.2 40.5591 175.2 40.3159C175.2 40.0728 175.397 39.8757 175.641 39.8757H183.631C183.874 39.8757 184.072 40.0728 184.072 40.3159C184.071 40.5591 183.874 40.7561 183.631 40.7561Z" fill="#47301F"/>
<path d="M183.056 43.4134H176.217C175.973 43.4134 175.776 43.2163 175.776 42.9732C175.776 42.73 175.973 42.533 176.217 42.533H183.056C183.299 42.533 183.496 42.73 183.496 42.9732C183.496 43.2163 183.299 43.4134 183.056 43.4134Z" fill="#47301F"/>
<path d="M181.982 46.0691H177.289C177.046 46.0691 176.849 45.8721 176.849 45.6289C176.849 45.3857 177.046 45.1887 177.289 45.1887H181.982C182.225 45.1887 182.422 45.3857 182.422 45.6289C182.422 45.8721 182.225 46.0691 181.982 46.0691Z" fill="#47301F"/>
<path d="M182.873 53.743H198.195C198.974 53.743 199.362 52.7934 198.799 52.2541C196.297 49.8573 190.406 46.004 182.349 52.183C181.69 52.688 182.043 53.743 182.873 53.743Z" fill="#442103"/>
</svg>
