<svg width="1512" height="335" viewBox="0 0 1512 335" fill="none" xmlns="http://www.w3.org/2000/svg">
<path d="M-66 186.002C-31.0319 166.06 46.7971 122.513 78.3684 107.856C117.832 89.5343 19.9217 206.193 59.3857 196.098C98.8497 186.002 207.251 -1.32476 222.237 28.5877C237.224 58.5002 138.813 316.122 201.256 245.453C263.699 174.785 423.054 -39.4631 425.052 28.5877C427.05 96.6385 319.149 285.461 396.578 235.732C474.008 186.002 575.915 66.7262 574.416 107.856C572.917 148.985 472.009 408.85 593.399 235.732C714.788 62.6129 782.726 -46.5677 779.229 21.4832C775.732 89.5342 695.805 265.644 752.753 235.732C809.702 205.819 978.548 -40.9586 995.532 28.5877C1012.52 98.1341 893.625 346.408 986.041 271.253C1078.46 196.098 1224.82 -7.30748 1251.3 66.7259C1277.77 140.759 1128.41 419.693 1224.82 307.895C1321.24 196.098 1444.62 -46.9415 1440.63 39.8047C1436.63 126.551 1362.7 239.845 1440.63 186.002C1502.97 142.928 1558.85 134.902 1579 136.273" stroke="#B75025" stroke-opacity="0.1" stroke-width="1.99866"/>
</svg>
