<svg width="402" height="77" viewBox="0 0 402 77" fill="none" xmlns="http://www.w3.org/2000/svg">
<rect x="2.41308" y="1.70409" width="397.174" height="73.1742" rx="36.5871" fill="white"/>
<rect x="2.41308" y="1.70409" width="397.174" height="73.1742" rx="36.5871" stroke="black" stroke-width="3.04348"/>
<path d="M100.326 47.2457C99.4744 47.6916 98.6026 48.0482 97.711 48.3157C96.8193 48.5832 95.9178 48.7714 95.0063 48.8804C94.1048 48.9993 93.1685 49.0588 92.1976 49.0588C90.4044 49.0588 88.7945 48.8111 87.3679 48.3157C85.9512 47.8204 84.7177 47.0922 83.6676 46.1312C82.6273 45.1603 81.8446 44.0309 81.3196 42.7429C80.8044 41.4451 80.5468 40.0234 80.5468 38.4779C80.5468 36.7045 80.8539 35.1541 81.4682 33.8265C82.0824 32.489 82.9394 31.3794 84.0391 30.4977C85.1487 29.616 86.4069 28.967 87.8137 28.5509C89.2304 28.1249 90.7215 27.9119 92.2868 27.9119C94.6249 27.9119 97.275 28.4321 100.237 29.4723V34.9411C99.2168 34.307 98.2063 33.7819 97.2057 33.3658C96.215 32.9398 95.0459 32.7268 93.6986 32.7268C92.4998 32.7268 91.3803 32.9646 90.34 33.4401C89.2998 33.9157 88.4626 34.5943 87.8286 35.476C87.1945 36.3578 86.8775 37.3881 86.8775 38.5671C86.8775 39.6073 87.1549 40.5634 87.7097 41.4352C88.2645 42.2971 89.0323 42.9857 90.0131 43.5008C91.0038 44.0061 92.1184 44.2587 93.3568 44.2587C94.3574 44.2587 95.3035 44.1399 96.1952 43.9021C97.0868 43.6544 97.8348 43.382 98.4391 43.0847C99.0534 42.7875 99.6825 42.4358 100.326 42.0296V47.2457ZM126.095 38.4779C126.095 40.3999 125.649 42.1683 124.757 43.7832C123.876 45.3981 122.558 46.681 120.805 47.6321C119.051 48.5832 116.916 49.0588 114.4 49.0588C111.853 49.0588 109.699 48.5634 107.935 47.5727C106.172 46.582 104.859 45.2792 103.997 43.6643C103.145 42.0494 102.719 40.3206 102.719 38.4779C102.719 36.6253 103.145 34.8965 103.997 33.2915C104.849 31.6766 106.157 30.3788 107.92 29.398C109.694 28.4073 111.853 27.9119 114.4 27.9119C116.302 27.9119 117.996 28.1943 119.482 28.759C120.978 29.3237 122.206 30.0915 123.167 31.0624C124.128 32.0234 124.857 33.1479 125.352 34.4358C125.847 35.7138 126.095 37.0612 126.095 38.4779ZM119.764 38.4779C119.764 37.7052 119.65 37.0017 119.422 36.3677C119.195 35.7237 118.848 35.1689 118.382 34.7033C117.927 34.2277 117.367 33.8612 116.703 33.6036C116.039 33.3361 115.271 33.2024 114.4 33.2024C112.735 33.2024 111.427 33.6878 110.476 34.6587C109.525 35.6296 109.05 36.9027 109.05 38.4779C109.05 40.0531 109.525 41.3312 110.476 42.312C111.437 43.2829 112.745 43.7683 114.4 43.7683C115.539 43.7683 116.51 43.5454 117.312 43.0996C118.115 42.6439 118.724 42.0197 119.14 41.2271C119.556 40.4247 119.764 39.5083 119.764 38.4779ZM153.929 48.7913H147.717V36.8581L142.115 43.7683H141.624L136.007 36.8581V48.7913H129.974V28.1943H135.606L141.936 35.9219L148.297 28.1943H153.929V48.7913ZM165.372 48.7913H159.16V28.1943H165.372V48.7913ZM192.939 48.7913H187.41L176.725 37.3188V48.7913H170.573V28.1943H176.086L186.742 39.6073V28.1943H192.939V48.7913ZM217.548 47.3349C217.102 47.5033 216.721 47.642 216.404 47.751C216.087 47.86 215.779 47.9591 215.482 48.0482C215.195 48.1374 214.774 48.2513 214.219 48.39C213.278 48.608 212.337 48.7714 211.396 48.8804C210.464 48.9993 209.479 49.0588 208.438 49.0588C206.348 49.0588 204.416 48.6773 202.643 47.9145C200.869 47.1516 199.448 45.9677 198.378 44.3628C197.317 42.7578 196.787 40.7863 196.787 38.4482C196.787 36.9423 197.06 35.4661 197.605 34.0197C198.16 32.5633 199.002 31.3992 200.131 30.5274C201.062 29.8042 202.004 29.2543 202.955 28.8779C203.916 28.4915 204.852 28.2339 205.763 28.1051C206.675 27.9763 207.68 27.9119 208.78 27.9119C210.593 27.9119 212.089 28.0506 213.268 28.328C214.447 28.5955 215.74 28.9522 217.147 29.398V34.2723C216.215 33.7274 215.23 33.2717 214.189 32.9051C213.149 32.5386 211.851 32.3553 210.296 32.3553C208.503 32.3553 207.066 32.6971 205.986 33.3807C204.916 34.0544 204.168 34.8618 203.742 35.803C203.326 36.7442 203.118 37.6556 203.118 38.5374C203.118 39.5776 203.361 40.5386 203.846 41.4203C204.332 42.2922 205.065 42.9956 206.046 43.5306C207.027 44.0556 208.21 44.3182 209.597 44.3182C210.39 44.3182 211.232 44.2142 212.124 44.0061V41.5838H209.33V37.4377H217.548V47.3349ZM245.872 42.8024C245.872 44.0903 245.541 45.2049 244.877 46.146C244.223 47.0872 243.307 47.8105 242.128 48.3157C240.949 48.8111 239.596 49.0588 238.071 49.0588C237.645 49.0588 237.119 49.029 236.495 48.9696C235.881 48.9201 235.059 48.7714 234.028 48.5238C233.008 48.2761 231.943 47.9095 230.833 47.4241V42.3714C231.874 43.0154 232.894 43.5504 233.895 43.9764C234.905 44.4024 235.985 44.6154 237.134 44.6154C238.194 44.6154 238.878 44.442 239.185 44.0953C239.502 43.7386 239.661 43.4067 239.661 43.0996C239.661 42.5448 239.393 42.0792 238.858 41.7027C238.323 41.3163 237.545 40.92 236.525 40.5138C235.396 40.0383 234.405 39.5231 233.553 38.9683C232.701 38.4036 232.002 37.7002 231.458 36.8581C230.923 36.016 230.655 35.0203 230.655 33.8711C230.655 32.7615 230.928 31.7609 231.472 30.8692C232.017 29.9677 232.85 29.2494 233.969 28.7144C235.089 28.1794 236.456 27.9119 238.071 27.9119C239.22 27.9119 240.28 28.0259 241.251 28.2537C242.232 28.4717 243.039 28.7194 243.673 28.9968C244.307 29.2742 244.743 29.4921 244.981 29.6506V34.4804C244.139 33.876 243.198 33.3361 242.157 32.8606C241.127 32.385 240.022 32.1472 238.843 32.1472C238.071 32.1472 237.511 32.2958 237.164 32.5931C236.817 32.8903 236.644 33.2568 236.644 33.6928C236.644 34.0989 236.817 34.4507 237.164 34.7479C237.511 35.0451 238.13 35.4067 239.022 35.8327C240.607 36.5757 241.875 37.2445 242.826 37.8389C243.777 38.4333 244.52 39.1219 245.055 39.9045C245.6 40.6773 245.872 41.6432 245.872 42.8024ZM272.146 38.4779C272.146 40.3999 271.7 42.1683 270.809 43.7832C269.927 45.3981 268.609 46.681 266.856 47.6321C265.102 48.5832 262.967 49.0588 260.451 49.0588C257.905 49.0588 255.75 48.5634 253.986 47.5727C252.223 46.582 250.91 45.2792 250.048 43.6643C249.196 42.0494 248.77 40.3206 248.77 38.4779C248.77 36.6253 249.196 34.8965 250.048 33.2915C250.9 31.6766 252.208 30.3788 253.972 29.398C255.745 28.4073 257.905 27.9119 260.451 27.9119C262.353 27.9119 264.047 28.1943 265.533 28.759C267.029 29.3237 268.258 30.0915 269.219 31.0624C270.18 32.0234 270.908 33.1479 271.403 34.4358C271.899 35.7138 272.146 37.0612 272.146 38.4779ZM265.816 38.4779C265.816 37.7052 265.702 37.0017 265.474 36.3677C265.246 35.7237 264.899 35.1689 264.434 34.7033C263.978 34.2277 263.418 33.8612 262.754 33.6036C262.09 33.3361 261.323 33.2024 260.451 33.2024C258.786 33.2024 257.479 33.6878 256.528 34.6587C255.577 35.6296 255.101 36.9027 255.101 38.4779C255.101 40.0531 255.577 41.3312 256.528 42.312C257.489 43.2829 258.796 43.7683 260.451 43.7683C261.59 43.7683 262.561 43.5454 263.364 43.0996C264.166 42.6439 264.775 42.0197 265.191 41.2271C265.608 40.4247 265.816 39.5083 265.816 38.4779ZM298.063 38.4779C298.063 40.3999 297.618 42.1683 296.726 43.7832C295.844 45.3981 294.527 46.681 292.773 47.6321C291.019 48.5832 288.884 49.0588 286.368 49.0588C283.822 49.0588 281.667 48.5634 279.904 47.5727C278.14 46.582 276.827 45.2792 275.965 43.6643C275.113 42.0494 274.687 40.3206 274.687 38.4779C274.687 36.6253 275.113 34.8965 275.965 33.2915C276.817 31.6766 278.125 30.3788 279.889 29.398C281.662 28.4073 283.822 27.9119 286.368 27.9119C288.27 27.9119 289.964 28.1943 291.45 28.759C292.946 29.3237 294.175 30.0915 295.136 31.0624C296.097 32.0234 296.825 33.1479 297.32 34.4358C297.816 35.7138 298.063 37.0612 298.063 38.4779ZM291.733 38.4779C291.733 37.7052 291.619 37.0017 291.391 36.3677C291.163 35.7237 290.816 35.1689 290.351 34.7033C289.895 34.2277 289.335 33.8612 288.671 33.6036C288.008 33.3361 287.24 33.2024 286.368 33.2024C284.704 33.2024 283.396 33.6878 282.445 34.6587C281.494 35.6296 281.018 36.9027 281.018 38.4779C281.018 40.0531 281.494 41.3312 282.445 42.312C283.406 43.2829 284.713 43.7683 286.368 43.7683C287.507 43.7683 288.478 43.5454 289.281 43.0996C290.083 42.6439 290.692 42.0197 291.109 41.2271C291.525 40.4247 291.733 39.5083 291.733 38.4779ZM323.862 48.7913H318.333L307.649 37.3188V48.7913H301.496V28.1943H307.01L317.665 39.6073V28.1943H323.862V48.7913Z" fill="#492C25"/>
<path d="M8.5 38.2263C8.5 21.4176 22.1261 7.7915 38.9348 7.7915H286.217V68.6611H38.9347C22.1261 68.6611 8.5 55.0349 8.5 38.2263Z" fill="#492C25"/>
<mask id="mask0_158_1686" style="mask-type:alpha" maskUnits="userSpaceOnUse" x="80" y="27" width="244" height="23">
<path d="M100.326 47.2455C99.4741 47.6913 98.6022 48.048 97.7106 48.3155C96.8189 48.583 95.9174 48.7712 95.0059 48.8802C94.1044 48.9991 93.1682 49.0585 92.1973 49.0585C90.4041 49.0585 88.7942 48.8108 87.3675 48.3155C85.9508 47.8201 84.7174 47.0919 83.6672 46.1309C82.6269 45.16 81.8443 44.0306 81.3192 42.7427C80.804 41.4449 80.5464 40.0232 80.5464 38.4777C80.5464 36.7043 80.8536 35.1538 81.4678 33.8263C82.0821 32.4888 82.939 31.3792 84.0387 30.4975C85.1483 29.6157 86.4065 28.9668 87.8133 28.5507C89.2301 28.1247 90.7211 27.9117 92.2864 27.9117C94.6245 27.9117 97.2747 28.4318 100.237 29.4721V34.9408C99.2165 34.3068 98.2059 33.7817 97.2053 33.3656C96.2146 32.9396 95.0456 32.7266 93.6982 32.7266C92.4994 32.7266 91.3799 32.9643 90.3397 33.4399C89.2994 33.9154 88.4623 34.5941 87.8282 35.4758C87.1941 36.3575 86.8771 37.3879 86.8771 38.5668C86.8771 39.6071 87.1545 40.5631 87.7093 41.435C88.2641 42.2969 89.0319 42.9854 90.0127 43.5006C91.0034 44.0059 92.118 44.2585 93.3564 44.2585C94.357 44.2585 95.3032 44.1396 96.1948 43.9018C97.0864 43.6542 97.8344 43.3817 98.4388 43.0845C99.053 42.7873 99.6821 42.4356 100.326 42.0294V47.2455ZM126.095 38.4777C126.095 40.3997 125.649 42.1681 124.757 43.7829C123.875 45.3978 122.558 46.6808 120.804 47.6319C119.051 48.583 116.916 49.0585 114.399 49.0585C111.853 49.0585 109.698 48.5632 107.935 47.5724C106.171 46.5817 104.859 45.2789 103.997 43.6641C103.145 42.0492 102.719 40.3204 102.719 38.4777C102.719 36.625 103.145 34.8962 103.997 33.2913C104.849 31.6764 106.156 30.3786 107.92 29.3978C109.693 28.407 111.853 27.9117 114.399 27.9117C116.301 27.9117 117.995 28.194 119.482 28.7587C120.978 29.3235 122.206 30.0913 123.167 31.0622C124.128 32.0232 124.856 33.1476 125.352 34.4355C125.847 35.7136 126.095 37.0609 126.095 38.4777ZM119.764 38.4777C119.764 37.7049 119.65 37.0015 119.422 36.3674C119.194 35.7235 118.848 35.1687 118.382 34.703C117.926 34.2275 117.366 33.8609 116.703 33.6033C116.039 33.3359 115.271 33.2021 114.399 33.2021C112.735 33.2021 111.427 33.6876 110.476 34.6585C109.525 35.6294 109.049 36.9024 109.049 38.4777C109.049 40.0529 109.525 41.3309 110.476 42.3117C111.437 43.2826 112.745 43.7681 114.399 43.7681C115.539 43.7681 116.509 43.5452 117.312 43.0994C118.114 42.6436 118.724 42.0195 119.14 41.2269C119.556 40.4244 119.764 39.508 119.764 38.4777ZM153.929 48.791H147.717V36.8578L142.114 43.7681H141.624L136.007 36.8578V48.791H129.973V28.194H135.605L141.936 35.9216L148.297 28.194H153.929V48.791ZM165.372 48.791H159.16V28.194H165.372V48.791ZM192.938 48.791H187.41L176.725 37.3185V48.791H170.573V28.194H176.086L186.741 39.6071V28.194H192.938V48.791ZM217.548 47.3347C217.102 47.5031 216.72 47.6418 216.403 47.7508C216.086 47.8597 215.779 47.9588 215.482 48.048C215.195 48.1371 214.774 48.2511 214.219 48.3898C213.278 48.6077 212.336 48.7712 211.395 48.8802C210.464 48.9991 209.478 49.0585 208.438 49.0585C206.348 49.0585 204.416 48.6771 202.642 47.9142C200.869 47.1514 199.447 45.9675 198.377 44.3625C197.317 42.7576 196.787 40.786 196.787 38.4479C196.787 36.9421 197.06 35.4659 197.604 34.0194C198.159 32.5631 199.001 31.399 200.131 30.5272C201.062 29.804 202.003 29.2541 202.954 28.8776C203.915 28.4913 204.852 28.2337 205.763 28.1049C206.674 27.9761 207.68 27.9117 208.78 27.9117C210.593 27.9117 212.089 28.0504 213.268 28.3278C214.447 28.5953 215.739 28.9519 217.146 29.3978V34.2721C216.215 33.7272 215.229 33.2715 214.189 32.9049C213.149 32.5383 211.851 32.355 210.296 32.355C208.502 32.355 207.066 32.6968 205.986 33.3804C204.916 34.0541 204.168 34.8616 203.742 35.8027C203.326 36.7439 203.118 37.6554 203.118 38.5371C203.118 39.5774 203.36 40.5384 203.846 41.4201C204.331 42.2919 205.065 42.9953 206.045 43.5303C207.026 44.0554 208.21 44.3179 209.597 44.3179C210.39 44.3179 211.232 44.2139 212.123 44.0059V41.5836H209.33V37.4374H217.548V47.3347ZM245.872 42.8021C245.872 44.0901 245.54 45.2046 244.876 46.1458C244.223 47.087 243.306 47.8102 242.127 48.3155C240.948 48.8108 239.596 49.0585 238.07 49.0585C237.644 49.0585 237.119 49.0288 236.495 48.9693C235.881 48.9198 235.058 48.7712 234.028 48.5235C233.008 48.2758 231.943 47.9093 230.833 47.4238V42.3712C231.873 43.0151 232.894 43.5501 233.894 43.9761C234.905 44.4021 235.985 44.6151 237.134 44.6151C238.194 44.6151 238.878 44.4418 239.185 44.095C239.502 43.7384 239.66 43.4065 239.66 43.0994C239.66 42.5446 239.393 42.0789 238.858 41.7024C238.323 41.3161 237.545 40.9198 236.525 40.5136C235.395 40.038 234.405 39.5229 233.553 38.9681C232.701 38.4034 232.002 37.7 231.457 36.8578C230.922 36.0157 230.655 35.0201 230.655 33.8708C230.655 32.7612 230.927 31.7606 231.472 30.869C232.017 29.9674 232.849 29.2492 233.969 28.7142C235.088 28.1792 236.455 27.9117 238.07 27.9117C239.219 27.9117 240.28 28.0256 241.25 28.2535C242.231 28.4714 243.039 28.7191 243.673 28.9965C244.307 29.2739 244.743 29.4919 244.98 29.6504V34.4801C244.138 33.8758 243.197 33.3359 242.157 32.8603C241.127 32.3848 240.022 32.147 238.843 32.147C238.07 32.147 237.51 32.2956 237.164 32.5928C236.817 32.89 236.644 33.2566 236.644 33.6925C236.644 34.0987 236.817 34.4504 237.164 34.7476C237.51 35.0448 238.13 35.4064 239.021 35.8325C240.606 36.5755 241.875 37.2442 242.826 37.8387C243.777 38.4331 244.52 39.1216 245.055 39.9043C245.6 40.6771 245.872 41.643 245.872 42.8021ZM272.146 38.4777C272.146 40.3997 271.7 42.1681 270.808 43.7829C269.927 45.3978 268.609 46.6808 266.855 47.6319C265.102 48.583 262.967 49.0585 260.45 49.0585C257.904 49.0585 255.75 48.5632 253.986 47.5724C252.223 46.5817 250.91 45.2789 250.048 43.6641C249.196 42.0492 248.77 40.3204 248.77 38.4777C248.77 36.625 249.196 34.8962 250.048 33.2913C250.9 31.6764 252.208 30.3786 253.971 29.3978C255.745 28.407 257.904 27.9117 260.45 27.9117C262.353 27.9117 264.047 28.194 265.533 28.7587C267.029 29.3235 268.257 30.0913 269.218 31.0622C270.179 32.0232 270.907 33.1476 271.403 34.4355C271.898 35.7136 272.146 37.0609 272.146 38.4777ZM265.815 38.4777C265.815 37.7049 265.701 37.0015 265.473 36.3674C265.246 35.7235 264.899 35.1687 264.433 34.703C263.977 34.2275 263.418 33.8609 262.754 33.6033C262.09 33.3359 261.322 33.2021 260.45 33.2021C258.786 33.2021 257.478 33.6876 256.527 34.6585C255.576 35.6294 255.101 36.9024 255.101 38.4777C255.101 40.0529 255.576 41.3309 256.527 42.3117C257.488 43.2826 258.796 43.7681 260.45 43.7681C261.59 43.7681 262.561 43.5452 263.363 43.0994C264.166 42.6436 264.775 42.0195 265.191 41.2269C265.607 40.4244 265.815 39.508 265.815 38.4777ZM298.063 38.4777C298.063 40.3997 297.617 42.1681 296.726 43.7829C295.844 45.3978 294.526 46.6808 292.773 47.6319C291.019 48.583 288.884 49.0585 286.368 49.0585C283.821 49.0585 281.667 48.5632 279.903 47.5724C278.14 46.5817 276.827 45.2789 275.965 43.6641C275.113 42.0492 274.687 40.3204 274.687 38.4777C274.687 36.625 275.113 34.8962 275.965 33.2913C276.817 31.6764 278.125 30.3786 279.888 29.3978C281.662 28.407 283.821 27.9117 286.368 27.9117C288.27 27.9117 289.964 28.194 291.45 28.7587C292.946 29.3235 294.174 30.0913 295.135 31.0622C296.096 32.0232 296.825 33.1476 297.32 34.4355C297.815 35.7136 298.063 37.0609 298.063 38.4777ZM291.732 38.4777C291.732 37.7049 291.618 37.0015 291.391 36.3674C291.163 35.7235 290.816 35.1687 290.35 34.703C289.895 34.2275 289.335 33.8609 288.671 33.6033C288.007 33.3359 287.239 33.2021 286.368 33.2021C284.703 33.2021 283.395 33.6876 282.444 34.6585C281.493 35.6294 281.018 36.9024 281.018 38.4777C281.018 40.0529 281.493 41.3309 282.444 42.3117C283.405 43.2826 284.713 43.7681 286.368 43.7681C287.507 43.7681 288.478 43.5452 289.28 43.0994C290.083 42.6436 290.692 42.0195 291.108 41.2269C291.524 40.4244 291.732 39.508 291.732 38.4777ZM323.861 48.791H318.333L307.648 37.3185V48.791H301.496V28.194H307.009L317.664 39.6071V28.194H323.861V48.791Z" fill="white"/>
</mask>
<g mask="url(#mask0_158_1686)">
<path d="M8.49951 38.2258C8.49951 21.4171 22.1256 7.79102 38.9343 7.79102H286.217V68.6606H38.9343C22.1256 68.6606 8.49951 55.0345 8.49951 38.2258Z" fill="white"/>
</g>
</svg>
