<svg width="80" height="81" viewBox="0 0 80 81" fill="none" xmlns="http://www.w3.org/2000/svg">
<rect y="0.825928" width="80" height="80" rx="40" fill="#FEF0E9"/>
<path d="M24.4775 22.9993C28.2357 23.3191 33.7734 25.0788 37.4316 27.0579C38.091 27.4176 38.491 28.0769 38.4912 28.8362V56.6428C38.4912 58.0621 37.0513 59.0419 35.752 58.5022C32.0338 56.943 27.416 55.5836 24.1377 55.1438L23.5186 55.0637C21.5795 54.8238 20 53.0448 20 51.1057V27.3372C20.0001 24.9384 21.9391 22.9993 24.3379 22.9993H24.4775ZM55.6621 22.9993C58.0607 22.9995 59.9999 24.9386 60 27.3372V51.1057C60 53.0447 58.4204 54.8238 56.4814 55.0637L55.8613 55.1438C52.5829 55.5836 47.9651 56.943 44.2471 58.5022C42.9478 59.0418 41.5088 58.0621 41.5088 56.6428V28.8372C41.5088 28.0976 41.9284 27.4177 42.5879 27.0579C46.2461 25.0788 51.7838 23.3191 55.542 22.9993H55.6621ZM26.0166 39.1116C25.1973 39.1118 24.5178 39.7913 24.5176 40.6106C24.5176 41.45 25.1972 42.1103 26.0166 42.1106H32.0137C32.8333 42.1106 33.5137 41.4502 33.5137 40.6106C33.5135 39.7911 32.8332 39.1116 32.0137 39.1116H26.0166ZM26.0166 33.1145C25.1973 33.1148 24.5178 33.7942 24.5176 34.6135C24.5176 35.453 25.1972 36.1133 26.0166 36.1135H30.5146C31.3342 36.1135 32.0137 35.4531 32.0137 34.6135C32.0135 33.7941 31.3341 33.1145 30.5146 33.1145H26.0166Z" fill="#B85025"/>
</svg>
