<svg width="80" height="81" viewBox="0 0 80 81" fill="none" xmlns="http://www.w3.org/2000/svg">
<rect y="0.825928" width="80" height="80" rx="40" fill="#FEF0E9"/>
<g clip-path="url(#clip0_332_2136)">
<path d="M51.7349 43.4441L37.3805 29.0903C36.5268 29.6866 35.3436 29.9928 33.8436 29.9928C30.4505 29.9928 26.7786 28.4428 26.7424 28.4266C26.5843 28.3597 26.4174 28.3259 26.2505 28.3259C26.043 28.3259 25.8368 28.3772 25.6505 28.4797C25.3143 28.6641 25.0805 28.9922 25.0174 29.3703L20.0174 59.3703C19.9874 59.5478 20.003 59.7259 20.048 59.8953L34.2711 45.6716C33.9436 45.1778 33.7505 44.5872 33.7505 43.9509C33.7505 42.2278 35.1524 40.8259 36.8755 40.8259C38.5986 40.8259 40.0005 42.2278 40.0005 43.9509C40.0005 45.6741 38.5986 47.0759 36.8755 47.0759C36.2393 47.0759 35.6493 46.8828 35.1549 46.5553L20.9318 60.7797C21.0355 60.8066 21.1418 60.8259 21.2505 60.8259C21.3186 60.8259 21.3874 60.8203 21.4561 60.8091L51.4561 55.8091C51.8343 55.7459 52.163 55.5122 52.3474 55.1759C52.5318 54.8391 52.5505 54.4359 52.3993 54.0834C51.5036 51.9934 49.768 46.2616 51.7349 43.4441Z" fill="#B85025"/>
<path d="M38.3087 28.2503L52.5762 42.5178L53.5674 41.5266L39.2999 27.259L38.3087 28.2503Z" fill="#B85025"/>
<path d="M36.8755 45.8259C37.911 45.8259 38.7505 44.9865 38.7505 43.9509C38.7505 42.9154 37.911 42.0759 36.8755 42.0759C35.84 42.0759 35.0005 42.9154 35.0005 43.9509C35.0005 44.9865 35.84 45.8259 36.8755 45.8259Z" fill="#B85025"/>
<path d="M59.6342 33.6922L47.1342 21.1922C46.8898 20.9478 46.5705 20.8259 46.2505 20.8259C45.9305 20.8259 45.6111 20.9478 45.3667 21.1922L40.1836 26.3753L54.4511 40.6428L59.6342 35.4597C60.1223 34.9716 60.1223 34.1803 59.6342 33.6922Z" fill="#B85025"/>
</g>
<defs>
<clipPath id="clip0_332_2136">
<rect width="40" height="40" fill="white" transform="translate(20 20.8259)"/>
</clipPath>
</defs>
</svg>
