<svg width="80" height="81" viewBox="0 0 80 81" fill="none" xmlns="http://www.w3.org/2000/svg">
<rect y="0.825928" width="80" height="80" rx="40" fill="#FEF0E9"/>
<path d="M39.9266 32.782C42.5062 32.782 44.5974 30.6908 44.5974 28.1112C44.5974 25.5316 42.5062 23.4404 39.9266 23.4404C37.347 23.4404 35.2559 25.5316 35.2559 28.1112C35.2559 30.6908 37.347 32.782 39.9266 32.782Z" fill="#B85025"/>
<path d="M56.2766 40.9615L51.9235 40.0534C50.4403 39.7427 48.9761 40.4225 48.202 41.631C47.4501 41.2448 46.6416 40.9117 45.7816 40.6354V38.0468C45.7833 36.0882 44.18 34.4866 42.2283 34.4866H37.7773C35.8152 34.4866 34.2188 36.0882 34.2188 38.0468V40.6491C33.3674 40.9203 32.5675 41.2533 31.8105 41.6412C31.0363 40.4276 29.5703 39.7427 28.0855 40.0534L23.7288 40.9615C21.8165 41.3614 20.5754 43.2583 20.9754 45.1774L22.0688 50.4009C22.4654 52.3149 24.3639 53.556 26.2779 53.156L27.6563 52.8676C28.3463 53.8873 29.3008 54.8228 30.523 55.6227C33.0686 57.2912 36.4314 58.2113 40.0001 58.2113C45.4606 58.2113 50.164 56.0158 52.3303 52.8625L53.731 53.156C55.6433 53.5542 57.5418 52.3149 57.9383 50.4009L59.0335 45.1774C59.4317 43.2583 58.1906 41.3614 56.2766 40.9615ZM39.9984 56.4278C36.7746 56.4278 33.7534 55.6159 31.4996 54.131C30.7272 53.6263 30.0869 53.0651 29.5737 52.4642L30.6293 52.2428C32.545 51.8446 33.7862 49.9477 33.3862 48.032L32.406 43.3355C32.9776 43.0282 33.5785 42.7587 34.217 42.5287V43.3853C34.217 45.3405 35.8168 46.942 37.7754 46.942H42.2265C44.18 46.942 45.7798 45.3388 45.7798 43.3853V42.4841C46.4304 42.7158 47.0415 42.9819 47.608 43.284L46.6141 48.0338C46.2175 49.9495 47.4569 51.8463 49.3726 52.2445L50.4385 52.4677C48.4508 54.8211 44.5181 56.4278 39.9984 56.4278Z" fill="#B85025"/>
<path d="M55.329 38.9221C57.9086 38.9221 59.9998 36.831 59.9998 34.2513C59.9998 31.6717 57.9086 29.5806 55.329 29.5806C52.7494 29.5806 50.6582 31.6717 50.6582 34.2513C50.6582 36.831 52.7494 38.9221 55.329 38.9221Z" fill="#B85025"/>
<path d="M25.6291 38.8245C28.1559 38.2958 29.7695 35.8188 29.2476 33.2937C28.7155 30.7704 26.2436 29.1499 23.7151 29.6786C21.1917 30.2056 19.5713 32.6809 20.1 35.206C20.6271 37.7328 23.1023 39.3516 25.6291 38.8245Z" fill="#B85025"/>
</svg>
