<svg width="195" height="68" viewBox="0 0 195 68" fill="none" xmlns="http://www.w3.org/2000/svg">
<path d="M17.8263 0.168592L17.8283 0.244612C15.5873 0.237612 -1.17274 1.0656 0.0652558 27.4676C1.39226 55.7556 15.2283 69.0096 19.5063 67.8476C23.8393 68.7806 37.4333 54.7106 37.2573 26.3916C37.0813 -1.92639 17.8263 0.168592 17.8263 0.168592Z" fill="#E06C19"/>
<path d="M1.36632 13.9985C0.585318 16.6785 0.0893057 19.8795 0.0133057 23.7035C0.942306 25.0765 2.31032 25.1076 4.18732 20.4306C4.18732 20.4306 6.09431 25.9606 8.35231 19.0516C8.35231 19.0516 11.4433 24.6485 12.2123 18.0325C12.2123 18.0325 15.4683 24.2756 16.5963 17.6586C16.5963 17.6586 18.7733 23.4745 20.4063 17.5015C20.4063 17.5015 22.3063 23.6296 24.5763 17.5596C24.5763 17.5596 26.1063 23.5925 28.4593 17.7615C28.4593 17.7615 28.9163 25.3085 32.0563 18.4685C32.0563 18.4685 33.8043 28.1586 36.9403 20.7836C36.4703 16.5946 35.5103 13.2505 34.2573 10.5835C26.4033 5.90154 8.95332 6.01655 1.36632 13.9985Z" fill="#492C25"/>
<path d="M36.6393 18.6056C33.3303 -1.51439 17.8263 0.168602 17.8263 0.168602L17.8283 0.245629C15.8583 0.238629 2.34229 0.87763 0.269287 19.6596C2.93329 17.1916 8.19229 14.1716 18.3493 13.1596L18.3473 13.0816C28.4723 13.5676 33.8583 16.2916 36.6393 18.6056Z" fill="white"/>
<path d="M21.7783 0.442687C19.4613 -0.00431293 17.8263 0.16867 17.8263 0.16867L17.8283 0.245696C17.3573 0.243696 16.2223 0.282688 14.7463 0.593688L15.5523 13.5127C16.4453 13.3797 17.3673 13.2577 18.3493 13.1597L18.3473 13.0817C19.2053 13.1227 20.0173 13.1857 20.8093 13.2577L21.7783 0.442687Z" fill="#E06C19"/>
<path d="M32.9073 8.13766C31.8533 6.48566 30.6773 5.17364 29.4583 4.12964L25.9523 13.9987C27.5073 14.3177 28.8953 14.6966 30.1213 15.1176C30.8373 13.1916 32.0953 10.1067 32.9073 8.13766Z" fill="#E06C19"/>
<path d="M3.90932 17.0947C5.50532 16.2207 7.49532 15.3827 9.97432 14.6837L7.98932 3.6897C6.27832 5.0057 4.62231 6.82569 3.26331 9.33469L3.90932 17.0947Z" fill="#E06C19"/>
<path d="M21.6322 35.5417C21.0052 33.6087 20.2843 28.6987 20.2633 26.8287C20.2423 24.9587 18.6102 25.4747 18.6102 25.4747C18.6102 25.4747 16.9802 25.1337 17.0582 27.0017C17.1362 28.8707 16.6772 33.8117 16.1532 35.7757C15.4442 38.4377 12.5052 41.2517 13.0832 41.9687C13.6612 42.6857 17.6192 45.2187 19.0192 44.8377C20.4372 45.1427 24.4883 42.3097 25.0263 41.5637C25.5663 40.8167 22.4822 38.1627 21.6322 35.5417Z" fill="#492C25"/>
<path d="M7.33325 41.9155C5.89225 35.6045 2.95825 32.7515 0.354248 31.4785C1.27825 41.4225 3.76724 49.3055 6.70924 55.1585C7.92524 52.3025 8.72025 47.9915 7.33325 41.9155Z" fill="white"/>
<path d="M5.03519 42.6355C4.09019 38.4955 2.42819 36.0175 0.690186 34.5325C1.59219 41.4565 3.26319 47.2865 5.27219 52.0425C5.81419 49.6545 5.93019 46.5535 5.03519 42.6355Z" fill="#492C25"/>
<path d="M30.7673 41.2056C29.7273 47.2176 30.6853 51.4306 32.0073 54.2196C34.6753 48.2256 36.7722 40.2776 37.1782 30.4146C34.6472 31.8256 31.8713 34.8306 30.7673 41.2056Z" fill="white"/>
<path d="M33.1003 41.8015C32.4343 45.6505 32.6822 48.6755 33.3092 51.0055C35.0802 46.1835 36.4522 40.3425 36.9982 33.4905C35.3452 35.0655 33.8223 37.6265 33.1003 41.8015Z" fill="#492C25"/>
<path d="M10.7723 24.3325C8.20933 23.4085 5.11633 24.4775 5.34933 29.2705C5.46133 31.5665 6.24333 38.3765 10.1943 37.0875C15.3963 35.3895 13.8183 25.4315 10.7723 24.3325ZM10.0183 34.7765C7.67333 35.4965 7.22632 30.9325 7.13932 29.5855C6.95732 26.7745 8.70033 25.6725 10.2373 26.2375C12.0633 26.9075 13.1063 33.8285 10.0183 34.7765Z" fill="#492C25"/>
<path d="M8.5453 30.0775C8.5803 30.6195 8.76029 32.4545 9.70329 32.1655C10.9453 31.7845 10.5263 29.0005 9.79128 28.7305C9.17328 28.5045 8.4723 28.9475 8.5453 30.0775Z" fill="white"/>
<path d="M27.6553 36.5356C31.6693 37.6126 32.0883 30.7716 32.0783 28.4726C32.0563 23.6736 28.9113 22.7706 26.4003 23.8296C23.4163 25.0886 22.3693 35.1166 27.6553 36.5356ZM27.0363 25.7026C28.5413 25.0576 30.3393 26.0656 30.3073 28.8816C30.2913 30.2306 30.0882 34.8126 27.7082 34.2186C24.5732 33.4356 25.2473 26.4696 27.0363 25.7026Z" fill="#492C25"/>
<path d="M28.9282 29.4485C28.9222 29.9915 28.8402 31.8336 27.8832 31.5946C26.6222 31.2796 26.8933 28.4785 27.6133 28.1695C28.2183 27.9105 28.9412 28.3155 28.9282 29.4485Z" fill="white"/>
<path d="M8.1893 40.0247C8.1893 40.0247 8.17729 38.7986 8.43229 38.7736C8.68729 38.7486 9.40329 40.9467 9.05029 41.3217C8.69829 41.6957 8.4113 41.8017 8.1893 40.0247Z" fill="white"/>
<path d="M10.2603 39.7056C10.2603 39.7056 10.2484 38.4796 10.5034 38.4546C10.7584 38.4296 11.4744 40.6276 11.1214 41.0026C10.7694 41.3776 10.4823 41.4826 10.2603 39.7056Z" fill="white"/>
<path d="M29.8123 39.3625C29.8123 39.3625 29.7593 38.1375 29.5033 38.1255C29.2473 38.1135 28.6493 40.3466 29.0213 40.7026C29.3923 41.0586 29.6843 41.1485 29.8123 39.3625Z" fill="white"/>
<path d="M27.7273 39.1535C27.7273 39.1535 27.6744 37.9285 27.4184 37.9165C27.1624 37.9055 26.5644 40.1375 26.9364 40.4935C27.3084 40.8495 27.5993 40.9405 27.7273 39.1535Z" fill="white"/>
<path d="M16.8002 45.8996C16.8002 45.8996 13.4552 43.1216 11.3482 43.7476C8.70823 44.5326 8.98024 47.3106 10.0692 46.9076C11.1592 46.5036 11.5482 44.6236 16.8002 45.8996Z" fill="#492C25"/>
<path d="M21.5253 45.6866C21.5253 45.6866 24.7183 42.7346 26.8553 43.2486C29.5333 43.8916 29.4083 46.6806 28.3003 46.3356C27.1923 45.9906 26.7023 44.1336 21.5253 45.6866Z" fill="#492C25"/>
<path d="M13.7152 65.0164L15.7902 55.1864C15.7902 55.1864 14.6832 50.7024 12.1192 52.4934L8.24524 57.9695C8.64124 58.6375 9.04023 59.2804 9.44223 59.8804C10.3112 57.6734 12.2352 53.2844 13.6662 53.6384C15.0652 53.9844 12.9952 59.8874 11.7952 63.0034C12.4462 63.7664 13.0882 64.4314 13.7152 65.0164Z" fill="white"/>
<path d="M26.5512 52.0225C23.8952 50.3705 23.0282 54.9065 23.0282 54.9065L25.5582 64.3725C26.1402 63.7555 26.7342 63.0485 27.3302 62.2695C25.9542 59.1695 23.7242 53.6565 25.0682 53.2475C26.4322 52.8325 28.4912 56.8225 29.5162 59.0375C29.8792 58.4335 30.2382 57.7986 30.5912 57.1336L26.5512 52.0225Z" fill="white"/>
<path d="M16.5393 60.8817C17.4583 59.2357 22.6392 58.7297 22.5072 60.9127C22.4222 62.2987 15.8253 62.1607 16.5393 60.8817Z" fill="white"/>
<path d="M17.5072 64.2197C18.1272 63.1087 21.6262 62.7667 21.5372 64.2407C21.4802 65.1767 17.0252 65.0827 17.5072 64.2197Z" fill="white"/>
<path d="M17.9513 67.0048C18.4493 66.1118 21.2613 65.8378 21.1893 67.0218C21.1433 67.7738 17.5633 67.6988 17.9513 67.0048Z" fill="white"/>
<path d="M11.1083 50.8265L27.7763 49.8525C27.7763 49.8525 26.6423 57.5525 19.2913 57.6225C12.1863 57.6905 11.1083 50.8265 11.1083 50.8265Z" fill="#492C25"/>
<path d="M11.1083 50.8266C11.1083 50.8266 13.3803 44.6076 19.1123 49.1626C19.1123 49.1626 23.5133 44.0716 27.7763 49.8526L11.1083 50.8266Z" fill="white"/>
<path d="M102.127 20.8648L108.12 5.39478L82.7129 6.64877L88.7799 21.8618C88.7799 21.8618 75.4009 33.4378 77.4779 46.7518C79.5549 60.0658 87.8629 63.1868 96.3519 62.5878C108.944 61.6998 115.153 54.5088 112.65 39.8088C110.495 27.1448 102.127 20.8648 102.127 20.8648Z" fill="#CA4032"/>
<mask id="mask0_158_1700" style="mask-type:luminance" maskUnits="userSpaceOnUse" x="77" y="5" width="37" height="58">
<path d="M102.127 20.8648L108.12 5.39478L82.7129 6.64877L88.7799 21.8618C88.7799 21.8618 75.4009 33.4378 77.4779 46.7518C79.5549 60.0658 87.8629 63.1868 96.3519 62.5878C108.944 61.6998 115.153 54.5088 112.65 39.8088C110.495 27.1448 102.127 20.8648 102.127 20.8648Z" fill="white"/>
</mask>
<g mask="url(#mask0_158_1700)">
<path d="M108.121 5.39478L82.714 6.64877L83.908 9.64377L107.215 7.73077L108.121 5.39478Z" fill="#492C25"/>
<path d="M88.7499 21.7847L88.7809 21.8617C88.7809 21.8617 87.9699 22.5647 86.7799 23.8187C95.3129 25.1957 100.862 24.2127 104.287 22.8687C103.017 21.5347 102.128 20.8657 102.128 20.8657L102.143 20.8267C95.7809 22.9997 91.4209 22.6117 88.7499 21.7847Z" fill="#492C25"/>
<path d="M107.809 27.3516C107.261 26.5086 106.712 25.7457 106.181 25.0667C96.8179 28.2357 88.6709 26.1117 85.6409 25.0667C85.0249 25.7677 84.3599 26.5716 83.6809 27.4646C93.2789 31.5426 103.616 28.8046 107.809 27.3516Z" fill="#492C25"/>
<path d="M111.312 34.5537C94.929 41.3647 83.427 40.6777 77.745 39.5357C77.577 40.3037 77.448 41.0867 77.366 41.8807C95.252 43.4457 107.637 38.7267 111.971 36.7177C111.771 35.9707 111.551 35.2487 111.312 34.5537Z" fill="#492C25"/>
<path d="M112.883 49.7096C113.027 48.8556 113.122 47.9576 113.165 47.0146C96.909 54.7476 82.921 51.6986 78.236 50.2786C78.544 51.3756 78.905 52.3836 79.311 53.3096C96.893 56.3236 107.988 52.2696 112.883 49.7096Z" fill="#492C25"/>
<path d="M89.705 13.7388C88.882 13.7388 87.943 13.4778 86.917 12.7598C86.806 12.6818 86.777 12.5308 86.851 12.4178C86.872 12.3868 88.928 9.33976 93.189 11.4978C93.254 11.5308 93.302 11.5908 93.319 11.6618C93.336 11.7328 93.321 11.8078 93.278 11.8678C93.259 11.8938 91.891 13.7388 89.705 13.7388ZM87.42 12.4948C90.138 14.2368 92.081 12.4798 92.681 11.8078C89.595 10.3828 87.912 11.9188 87.42 12.4948Z" fill="#262626"/>
<path d="M90.145 13.7128C90.02 13.7128 89.912 13.6188 89.897 13.4918L89.61 11.0208C89.594 10.8838 89.693 10.7598 89.83 10.7438C89.962 10.7298 90.091 10.8258 90.107 10.9638L90.394 13.4348C90.41 13.5718 90.311 13.6958 90.174 13.7118C90.164 13.7128 90.154 13.7128 90.145 13.7128Z" fill="#262626"/>
<path d="M88.8249 13.3818C88.7269 13.3818 88.6339 13.3238 88.5939 13.2278L87.9349 11.6468C87.8819 11.5198 87.9419 11.3728 88.0699 11.3198C88.1969 11.2698 88.3439 11.3268 88.3969 11.4548L89.0559 13.0358C89.1089 13.1628 89.0489 13.3098 88.9209 13.3628C88.8899 13.3758 88.8569 13.3818 88.8249 13.3818Z" fill="#262626"/>
<path d="M91.087 13.4748C91.067 13.4748 91.047 13.4728 91.026 13.4678C90.892 13.4338 90.811 13.2988 90.844 13.1648L91.361 11.0918C91.394 10.9578 91.529 10.8758 91.664 10.9098C91.798 10.9438 91.879 11.0788 91.846 11.2128L91.329 13.2858C91.302 13.3998 91.2 13.4748 91.087 13.4748Z" fill="#262626"/>
<path d="M87.75 19.5348C86.927 19.5348 85.989 19.2738 84.962 18.5558C84.851 18.4778 84.822 18.3268 84.896 18.2138C84.916 18.1828 86.975 15.1368 91.234 17.2948C91.299 17.3278 91.347 17.3878 91.364 17.4588C91.381 17.5298 91.366 17.6048 91.323 17.6648C91.305 17.6898 89.937 19.5348 87.75 19.5348ZM85.465 18.2918C88.182 20.0318 90.126 18.2768 90.726 17.6048C87.637 16.1778 85.956 17.7138 85.465 18.2918Z" fill="#262626"/>
<path d="M88.19 19.5088C88.065 19.5088 87.957 19.4148 87.942 19.2878L87.655 16.8178C87.639 16.6808 87.738 16.5568 87.875 16.5408C88.007 16.5248 88.136 16.6228 88.152 16.7608L88.439 19.2308C88.455 19.3678 88.356 19.4918 88.219 19.5078C88.209 19.5078 88.2 19.5088 88.19 19.5088Z" fill="#262626"/>
<path d="M86.8711 19.1778C86.7731 19.1778 86.6801 19.1198 86.6401 19.0238L85.9811 17.4428C85.9281 17.3158 85.9881 17.1688 86.1161 17.1158C86.2421 17.0648 86.3901 17.1228 86.4431 17.2508L87.1021 18.8318C87.1551 18.9588 87.0951 19.1058 86.9671 19.1588C86.9361 19.1718 86.9031 19.1778 86.8711 19.1778Z" fill="#262626"/>
<path d="M89.133 19.2707C89.113 19.2707 89.0931 19.2687 89.0721 19.2637C88.9381 19.2297 88.8571 19.0947 88.8901 18.9607L89.407 16.8877C89.44 16.7537 89.5741 16.6717 89.7101 16.7057C89.8441 16.7397 89.9251 16.8747 89.8921 17.0087L89.3751 19.0817C89.3471 19.1947 89.245 19.2707 89.133 19.2707Z" fill="#262626"/>
<path d="M94.939 16.3576C94.116 16.3576 93.177 16.0966 92.15 15.3786C92.039 15.3006 92.01 15.1496 92.084 15.0366C92.105 15.0056 94.164 11.9606 98.422 14.1176C98.487 14.1506 98.535 14.2106 98.552 14.2816C98.569 14.3526 98.554 14.4276 98.511 14.4876C98.493 14.5126 97.125 16.3576 94.939 16.3576ZM92.653 15.1136C95.371 16.8526 97.314 15.0986 97.914 14.4266C94.825 12.9996 93.144 14.5366 92.653 15.1136Z" fill="#262626"/>
<path d="M95.377 16.3316C95.252 16.3316 95.144 16.2376 95.129 16.1106L94.843 13.6406C94.827 13.5036 94.926 13.3796 95.063 13.3636C95.197 13.3516 95.324 13.4466 95.34 13.5836L95.626 16.0536C95.642 16.1906 95.543 16.3146 95.406 16.3306C95.397 16.3306 95.387 16.3316 95.377 16.3316Z" fill="#262626"/>
<path d="M94.059 16.0016C93.961 16.0016 93.868 15.9436 93.828 15.8476L93.1691 14.2666C93.1161 14.1396 93.176 13.9926 93.304 13.9396C93.43 13.8896 93.578 13.9466 93.631 14.0746L94.2901 15.6556C94.3431 15.7826 94.283 15.9296 94.155 15.9826C94.124 15.9946 94.091 16.0016 94.059 16.0016Z" fill="#262626"/>
<path d="M96.32 16.0935C96.3 16.0935 96.2799 16.0915 96.2589 16.0865C96.1249 16.0525 96.0439 15.9175 96.0769 15.7835L96.5949 13.7105C96.6289 13.5765 96.762 13.4965 96.898 13.5285C97.032 13.5625 97.1129 13.6975 97.0799 13.8315L96.5619 15.9045C96.5349 16.0175 96.433 16.0935 96.32 16.0935Z" fill="#262626"/>
<path d="M97.37 20.7468C96.547 20.7468 95.608 20.4858 94.581 19.7678C94.47 19.6898 94.441 19.5388 94.515 19.4258C94.536 19.3948 96.595 16.3498 100.853 18.5068C100.918 18.5398 100.966 18.5998 100.983 18.6708C101 18.7418 100.985 18.8168 100.942 18.8768C100.924 18.9018 99.556 20.7468 97.37 20.7468ZM95.084 19.5028C97.802 21.2448 99.745 19.4878 100.345 18.8158C97.256 17.3888 95.575 18.9268 95.084 19.5028Z" fill="#262626"/>
<path d="M97.809 20.7208C97.684 20.7208 97.576 20.6268 97.561 20.4998L97.274 18.0298C97.258 17.8928 97.357 17.7687 97.494 17.7527C97.63 17.7377 97.755 17.8348 97.771 17.9728L98.058 20.4428C98.074 20.5798 97.975 20.7038 97.838 20.7198C97.829 20.7198 97.819 20.7208 97.809 20.7208Z" fill="#262626"/>
<path d="M96.4901 20.3898C96.3921 20.3898 96.2991 20.3318 96.2591 20.2358L95.6001 18.6548C95.5471 18.5278 95.6071 18.3808 95.7351 18.3278C95.8611 18.2778 96.0091 18.3348 96.0621 18.4628L96.7211 20.0438C96.7741 20.1708 96.7141 20.3178 96.5861 20.3708C96.5551 20.3838 96.5221 20.3898 96.4901 20.3898Z" fill="#262626"/>
<path d="M98.7521 20.4827C98.7321 20.4827 98.7121 20.4807 98.6911 20.4757C98.5571 20.4417 98.4761 20.3067 98.5091 20.1727L99.0261 18.0997C99.0591 17.9657 99.1921 17.8857 99.3291 17.9177C99.4631 17.9517 99.5441 18.0867 99.5111 18.2207L98.9941 20.2937C98.9661 20.4067 98.8641 20.4827 98.7521 20.4827Z" fill="#262626"/>
<path d="M103.685 15.1398C102.862 15.1398 101.923 14.8788 100.896 14.1608C100.785 14.0828 100.756 13.9318 100.83 13.8188C100.851 13.7878 102.91 10.7428 107.168 12.8998C107.233 12.9328 107.281 12.9928 107.298 13.0638C107.315 13.1348 107.3 13.2099 107.257 13.2699C107.239 13.2949 105.871 15.1398 103.685 15.1398ZM101.4 13.8958C104.117 15.6358 106.061 13.8798 106.661 13.2088C103.571 11.7818 101.891 13.3188 101.4 13.8958Z" fill="#262626"/>
<path d="M104.124 15.1129C103.999 15.1129 103.891 15.0189 103.876 14.8919L103.59 12.4219C103.574 12.2849 103.673 12.1609 103.81 12.1449C103.944 12.1309 104.071 12.2269 104.087 12.3649L104.373 14.8349C104.389 14.9719 104.29 15.0959 104.153 15.1119C104.144 15.1129 104.134 15.1129 104.124 15.1129Z" fill="#262626"/>
<path d="M102.805 14.7829C102.707 14.7829 102.614 14.7249 102.574 14.6289L101.915 13.0479C101.862 12.9209 101.922 12.7739 102.05 12.7209C102.175 12.6709 102.324 12.7279 102.377 12.8559L103.036 14.4369C103.089 14.5639 103.029 14.7109 102.901 14.7639C102.87 14.7769 102.837 14.7829 102.805 14.7829Z" fill="#262626"/>
<path d="M105.067 14.8759C105.047 14.8759 105.027 14.8739 105.006 14.8689C104.872 14.8349 104.791 14.6999 104.824 14.5659L105.342 12.4929C105.375 12.3589 105.508 12.2769 105.645 12.3109C105.779 12.3449 105.86 12.4799 105.827 12.6139L105.309 14.6869C105.281 14.7999 105.179 14.8759 105.067 14.8759Z" fill="#262626"/>
<path d="M99.375 11.8967C98.552 11.8967 97.613 11.6357 96.586 10.9177C96.475 10.8397 96.446 10.6887 96.52 10.5757C96.54 10.5447 98.599 7.50074 102.858 9.65674C102.923 9.68974 102.971 9.74974 102.988 9.82074C103.005 9.89174 102.99 9.96673 102.947 10.0267C102.929 10.0517 101.562 11.8967 99.375 11.8967ZM97.09 10.6527C99.807 12.3937 101.751 10.6377 102.351 9.96574C99.262 8.53874 97.581 10.0757 97.09 10.6527Z" fill="#262626"/>
<path d="M99.814 11.8706C99.689 11.8706 99.581 11.7766 99.566 11.6496L99.279 9.17963C99.263 9.04263 99.362 8.91863 99.499 8.90263C99.63 8.89063 99.76 8.98563 99.776 9.12263L100.063 11.5926C100.079 11.7296 99.98 11.8536 99.843 11.8696C99.834 11.8696 99.824 11.8706 99.814 11.8706Z" fill="#262626"/>
<path d="M98.495 11.5407C98.397 11.5407 98.304 11.4827 98.264 11.3867L97.605 9.8057C97.552 9.6787 97.612 9.53171 97.74 9.47871C97.866 9.42871 98.014 9.4857 98.067 9.6137L98.726 11.1947C98.779 11.3217 98.719 11.4687 98.591 11.5217C98.56 11.5337 98.527 11.5407 98.495 11.5407Z" fill="#262626"/>
<path d="M100.757 11.6328C100.737 11.6328 100.717 11.6308 100.696 11.6258C100.562 11.5918 100.481 11.4568 100.514 11.3228L101.031 9.24983C101.064 9.11583 101.198 9.03583 101.334 9.06783C101.468 9.10183 101.549 9.23684 101.516 9.37084L100.999 11.4438C100.972 11.5568 100.87 11.6328 100.757 11.6328Z" fill="#262626"/>
<path d="M82.9 29.9438L78.356 33.8238L81.959 37.4618L85.805 34.5028L82.9 29.9438ZM82.035 35.6768L80.584 33.5748L82.657 32.2648L83.5079 34.1189L82.035 35.6768Z" fill="white"/>
<path d="M91.3729 30.9319L87.4399 35.4299L91.5329 38.5069L94.9089 35.0209L91.3729 30.9319ZM91.3489 36.7299L89.6089 34.8609L91.4699 33.2639L92.5809 34.9749L91.3489 36.7299Z" fill="white"/>
<path d="M100.407 30.0349L97.426 34.7899L101.678 37.0369L104.292 33.3029L100.407 30.0349ZM101.244 35.4159L99.353 33.9409L100.842 32.1839L102.127 33.6059L101.244 35.4159Z" fill="white"/>
<path d="M108.525 27.8599L106.844 32.6799L111.069 33.8129L112.632 29.9729L108.525 27.8599ZM110.356 32.4619L108.381 31.5359L109.346 29.6769L110.773 30.6789L110.356 32.4619Z" fill="white"/>
<path d="M82.9809 44.3327C82.9789 44.3327 82.9769 44.3327 82.9749 44.3327L79.0039 44.2297C78.8659 44.2257 78.7569 44.1107 78.7599 43.9737C78.7629 43.8367 78.8689 43.7307 79.0159 43.7297L82.9869 43.8327C83.1249 43.8357 83.2339 43.9517 83.2309 44.0887C83.2279 44.2247 83.1159 44.3327 82.9809 44.3327Z" fill="#262626"/>
<path d="M82.4559 46.6517C82.4459 46.6517 82.4349 46.6517 82.4249 46.6497L78.6249 46.1767C78.4879 46.1597 78.3909 46.0347 78.4079 45.8977C78.4249 45.7607 78.5519 45.6557 78.6869 45.6807L82.4869 46.1537C82.6239 46.1707 82.7209 46.2957 82.7039 46.4327C82.6879 46.5597 82.5799 46.6517 82.4559 46.6517Z" fill="#262626"/>
<path d="M81.912 49.0497C81.91 49.0497 81.908 49.0497 81.906 49.0497L79.093 48.9836C78.955 48.9806 78.845 48.8656 78.849 48.7276C78.853 48.5896 78.973 48.4976 79.105 48.4836L81.918 48.5497C82.056 48.5527 82.166 48.6676 82.162 48.8056C82.158 48.9426 82.047 49.0497 81.912 49.0497Z" fill="#262626"/>
<path d="M85.0869 49.3269C84.9559 49.3269 84.8449 49.2249 84.8369 49.0919L84.5439 44.2429C84.5359 44.1049 84.6409 43.9869 84.7779 43.9779C84.9269 43.9649 85.0349 44.0748 85.0429 44.2118L85.3359 49.0609C85.3439 49.1989 85.2389 49.3169 85.1019 49.3259C85.0969 49.3269 85.0919 49.3269 85.0869 49.3269Z" fill="#262626"/>
<path d="M87.4069 49.2197C87.2769 49.2197 87.1669 49.1177 87.1579 48.9857L86.8439 44.1647C86.8349 44.0267 86.9399 43.9077 87.0769 43.8987C87.2099 43.8787 87.3329 43.9947 87.3429 44.1317L87.6569 48.9527C87.6659 49.0907 87.5609 49.2097 87.4239 49.2187C87.4179 49.2197 87.4129 49.2197 87.4069 49.2197Z" fill="#262626"/>
<path d="M89.8729 49.7688C89.7519 49.7688 89.6459 49.6808 89.6259 49.5578L88.7239 43.8798C88.7029 43.7438 88.7949 43.6158 88.9319 43.5938C89.0649 43.5728 89.1959 43.6648 89.2179 43.8018L90.1199 49.4798C90.1409 49.6158 90.0489 49.7438 89.9119 49.7658C89.8989 49.7678 89.8859 49.7688 89.8729 49.7688Z" fill="#262626"/>
<path d="M92.1539 44.5449C92.0349 44.5449 91.9289 44.4599 91.9079 44.3379C91.8839 44.2019 91.9749 44.0719 92.1109 44.0489L96.0239 43.3639C96.1569 43.3349 96.2889 43.4299 96.3129 43.5669C96.3369 43.7029 96.2459 43.8329 96.1099 43.8559L92.1969 44.5409C92.1829 44.5439 92.1679 44.5449 92.1539 44.5449Z" fill="#262626"/>
<path d="M92.1919 46.5259C92.0629 46.5259 91.9529 46.4259 91.9429 46.2949C91.9329 46.1569 92.0359 46.0369 92.1729 46.0259L95.9909 45.7369C96.1399 45.7209 96.2489 45.8299 96.2599 45.9669C96.2699 46.1049 96.1669 46.2249 96.0299 46.2359L92.2119 46.5249C92.2049 46.5259 92.1989 46.5259 92.1919 46.5259Z" fill="#262626"/>
<path d="M93.1809 49.1878C93.0619 49.1878 92.9569 49.1028 92.9349 48.9808C92.9109 48.8448 93.0009 48.7148 93.1379 48.6908L95.9089 48.1998C96.0429 48.1718 96.1739 48.2658 96.1989 48.4028C96.2229 48.5388 96.1329 48.6688 95.9959 48.6928L93.2249 49.1838C93.2099 49.1868 93.1959 49.1878 93.1809 49.1878Z" fill="#262626"/>
<path d="M104.845 42.3007C104.754 42.3007 104.666 42.2507 104.622 42.1647C104.559 42.0417 104.608 41.8907 104.731 41.8287L108.27 40.0247C108.394 39.9637 108.544 40.0107 108.606 40.1337C108.669 40.2567 108.62 40.4077 108.497 40.4697L104.958 42.2737C104.922 42.2927 104.884 42.3007 104.845 42.3007Z" fill="#262626"/>
<path d="M105.464 44.1838C105.364 44.1838 105.27 44.1238 105.231 44.0248C105.181 43.8968 105.244 43.7518 105.373 43.7008L108.938 42.3038C109.068 42.2538 109.212 42.3168 109.262 42.4458C109.312 42.5738 109.249 42.7188 109.12 42.7698L105.555 44.1668C105.525 44.1788 105.494 44.1838 105.464 44.1838Z" fill="#262626"/>
<path d="M107.191 46.4376C107.1 46.4376 107.013 46.3876 106.968 46.3016C106.905 46.1786 106.954 46.0276 107.076 45.9646L109.58 44.6806C109.705 44.6186 109.854 44.6666 109.917 44.7886C109.98 44.9116 109.931 45.0626 109.809 45.1256L107.305 46.4096C107.269 46.4286 107.23 46.4376 107.191 46.4376Z" fill="#262626"/>
<path d="M99.12 48.3388C99.009 48.3388 98.908 48.2648 98.878 48.1528L97.631 43.4578C97.596 43.3248 97.675 43.1878 97.809 43.1518C97.944 43.1148 98.08 43.1958 98.115 43.3298L99.362 48.0248C99.397 48.1578 99.318 48.2948 99.184 48.3308C99.162 48.3368 99.141 48.3388 99.12 48.3388Z" fill="#262626"/>
<path d="M101.373 47.7749C101.263 47.7749 101.162 47.7019 101.132 47.5899L99.87 42.9259C99.834 42.7929 99.912 42.6549 100.046 42.6189C100.181 42.5849 100.317 42.6619 100.353 42.7949L101.615 47.4589C101.651 47.5919 101.573 47.7298 101.439 47.7658C101.417 47.7718 101.395 47.7749 101.373 47.7749Z" fill="#262626"/>
<path d="M103.899 47.8258C103.797 47.8258 103.702 47.7638 103.665 47.6628L101.657 42.2758C101.609 42.1468 101.675 42.0028 101.804 41.9538C101.934 41.9048 102.077 41.9718 102.126 42.1008L104.134 47.4878C104.182 47.6168 104.116 47.7608 103.987 47.8098C103.958 47.8208 103.928 47.8258 103.899 47.8258Z" fill="#262626"/>
<path d="M111.884 44.6688C111.773 44.6688 111.672 44.5948 111.642 44.4828L110.395 39.7878C110.36 39.6548 110.439 39.5178 110.573 39.4818C110.708 39.4458 110.843 39.5258 110.879 39.6598L112.126 44.3548C112.161 44.4878 112.082 44.6248 111.948 44.6608C111.926 44.6658 111.905 44.6688 111.884 44.6688Z" fill="#262626"/>
<path d="M96.353 62.8378C96.238 62.8378 96.135 62.7578 96.109 62.6438C95.719 60.9348 94.28 56.5058 92.316 56.5058C92.314 56.5058 92.312 56.5058 92.309 56.5058C89.975 56.5168 89.682 62.0428 89.679 62.0988C89.673 62.2308 89.564 62.3348 89.432 62.3368H89.43C89.299 62.3368 89.189 62.2348 89.18 62.1038C89.176 62.0448 88.743 56.2468 86.212 56.3608C85.782 56.3778 85.433 56.5498 85.143 56.8878C83.893 58.3488 84.328 62.2058 84.332 62.2448C84.348 62.3818 84.249 62.5058 84.112 62.5218C83.977 62.5338 83.851 62.4388 83.835 62.3018C83.815 62.1348 83.373 58.1868 84.763 56.5618C85.142 56.1188 85.623 55.8828 86.192 55.8598C88.161 55.7768 89.035 58.3118 89.412 60.1678C89.74 58.3898 90.514 56.0138 92.307 56.0048C92.309 56.0048 92.313 56.0048 92.316 56.0048C94.254 56.0048 95.548 59.0828 96.17 61.0148C96.337 59.1898 96.898 56.3738 98.765 55.8478C99.267 55.7088 99.766 55.7748 100.25 56.0498C101.338 56.6688 102.16 58.2448 102.67 59.5028C102.645 57.5228 102.917 54.5928 104.67 54.0228C107.3 53.1688 110.775 59.0978 110.921 59.3518C110.99 59.4708 110.949 59.6238 110.83 59.6928C110.711 59.7618 110.558 59.7208 110.489 59.6018C109.547 57.9758 106.701 53.8918 104.825 54.4988C102.957 55.1058 103.075 59.6078 103.278 61.2908C103.294 61.4208 103.206 61.5408 103.078 61.5658C102.946 61.5878 102.823 61.5118 102.789 61.3848C102.778 61.3458 101.713 57.4558 100.004 56.4848C99.634 56.2758 99.273 56.2238 98.901 56.3298C96.524 56.9988 96.601 62.5268 96.602 62.5828C96.604 62.7108 96.51 62.8198 96.382 62.8358C96.373 62.8368 96.363 62.8378 96.353 62.8378Z" fill="white"/>
<path d="M96.353 62.8377C96.246 62.8377 96.148 62.7687 96.115 62.6637C96.102 62.6217 94.782 58.5467 92.403 58.5467C92.4 58.5467 92.396 58.5467 92.393 58.5467C90.045 58.5577 89.683 62.0747 89.679 62.1107C89.666 62.2417 89.582 62.3487 89.422 62.3367C89.29 62.3327 89.184 62.2257 89.18 62.0937C89.18 62.0697 89.095 59.6447 87.922 58.5497C87.522 58.1757 87.052 58.0077 86.488 58.0277C85.924 58.0497 85.481 58.2547 85.132 58.6537C84.11 59.8247 84.332 62.2247 84.334 62.2487C84.347 62.3857 84.247 62.5087 84.109 62.5217C83.974 62.5387 83.85 62.4357 83.836 62.2977C83.826 62.1907 83.591 59.6607 84.754 58.3257C85.192 57.8227 85.769 57.5547 86.468 57.5267C87.17 57.4927 87.768 57.7207 88.264 58.1847C88.96 58.8347 89.314 59.8457 89.494 60.6747C89.876 59.5167 90.694 58.0547 92.39 58.0467C92.394 58.0467 92.399 58.0467 92.404 58.0467C94.343 58.0467 95.604 60.1857 96.197 61.5047C96.397 60.1817 97.021 58.0827 98.972 57.7337C101.001 57.3697 102.28 59.1847 102.874 60.3417C103.07 59.0227 103.675 56.7677 105.53 56.1637C108.153 55.3117 110.801 59.1717 110.913 59.3367C110.99 59.4507 110.96 59.6067 110.846 59.6837C110.732 59.7597 110.576 59.7307 110.499 59.6167C110.474 59.5797 107.95 55.8937 105.685 56.6387C103.406 57.3807 103.282 61.2867 103.281 61.3267C103.278 61.4477 103.189 61.5487 103.069 61.5677C102.953 61.5877 102.834 61.5157 102.795 61.4017C102.783 61.3657 101.513 57.7857 99.061 58.2257C96.647 58.6567 96.604 62.5487 96.604 62.5887C96.604 62.7117 96.514 62.8167 96.392 62.8347C96.378 62.8367 96.365 62.8377 96.353 62.8377Z" fill="white"/>
<path d="M96.3531 62.8368C96.2581 62.8368 96.1701 62.7828 96.1281 62.6968C96.1161 62.6738 94.9571 60.3578 92.5631 60.3578C92.5571 60.3578 92.5511 60.3578 92.5441 60.3578C90.1641 60.3698 89.6761 62.1308 89.6711 62.1488C89.6401 62.2688 89.5211 62.3498 89.4021 62.3338C89.2791 62.3208 89.1841 62.2188 89.1791 62.0948C89.1791 62.0838 89.1311 61.0298 88.3961 60.3488C87.9411 59.9268 87.3021 59.7228 86.5241 59.7598C85.7401 59.7898 85.1551 60.0308 84.7851 60.4758C84.1881 61.1928 84.3301 62.2248 84.3311 62.2358C84.3511 62.3718 84.2561 62.4988 84.1201 62.5188C83.9871 62.5418 83.8571 62.4458 83.8371 62.3088C83.8291 62.2578 83.6591 61.0518 84.3981 60.1598C84.8621 59.5988 85.5711 59.2968 86.5051 59.2598C87.4251 59.2308 88.1841 59.4678 88.7411 59.9858C89.1801 60.3948 89.4141 60.8988 89.5381 61.3098C89.9601 60.6818 90.8361 59.8668 92.5411 59.8578C92.5481 59.8578 92.5561 59.8578 92.5621 59.8578C94.5791 59.8578 95.7881 61.2478 96.2961 62.0048C96.6231 61.2888 97.4601 60.0658 99.4341 59.7128C101.44 59.3538 102.507 60.2278 102.969 60.7878C103.321 60.0048 104.241 58.4438 106.17 57.8158C108.772 56.9688 110.806 59.2148 110.891 59.3108C110.983 59.4138 110.974 59.5718 110.871 59.6638C110.767 59.7558 110.609 59.7468 110.518 59.6438C110.499 59.6228 108.612 57.5458 106.324 58.2918C104.009 59.0448 103.276 61.3698 103.268 61.3938C103.238 61.4928 103.15 61.5618 103.046 61.5698C102.944 61.5768 102.846 61.5198 102.802 61.4268C102.77 61.3588 101.992 59.7618 99.5211 60.2058C97.0761 60.6428 96.6141 62.5608 96.5951 62.6428C96.5721 62.7468 96.4851 62.8238 96.3801 62.8358C96.3721 62.8368 96.3621 62.8368 96.3531 62.8368Z" fill="white"/>
</g>
<path d="M157.352 33.8361C156.006 32.9691 151.912 30.5731 153.597 28.6501C155.283 26.7271 159.988 29.8701 160.087 30.6801C160.186 31.4891 158.916 34.8431 157.352 33.8361Z" fill="#CA4032"/>
<path d="M159.571 35.6091C159.944 34.7881 161.062 33.4351 162.29 33.5301C164.557 33.7051 164.426 35.9771 162.726 37.5191C161.026 39.0611 158.24 38.5351 159.571 35.6091Z" fill="#CA4032"/>
<path d="M162.284 41.5562C162.884 40.5322 165.285 37.8532 166.212 38.8882C167.139 39.9232 165.972 44.7862 164.201 46.0032C163.408 46.5482 160.681 44.2902 162.284 41.5562Z" fill="#CA4032"/>
<path d="M165.75 10.963C165.938 9.89804 167.498 5.93904 169.737 9.28604C171.414 11.791 170.134 13.144 168.7 13.607C166.96 14.17 165.344 13.269 165.75 10.963Z" fill="#CA4032"/>
<path d="M166.371 19.519C166.212 18.199 166.041 15.236 169.03 14.913C172.019 14.59 171.395 20.033 170.651 20.814C169.907 21.596 166.734 22.533 166.371 19.519Z" fill="#CA4032"/>
<path d="M166.872 27.043C166.61 24.891 167.484 22.674 169.219 22.691C170.954 22.709 172.856 26.634 172.164 29.213C171.553 31.491 167.512 32.303 166.872 27.043Z" fill="#CA4032"/>
<path d="M175.44 10.719C175.549 9.62399 176.027 6.11499 178.351 7.63399C180.675 9.15299 180.614 12.361 180.167 13.422C179.566 14.85 174.949 15.663 175.44 10.719Z" fill="#CA4032"/>
<path d="M174.517 18.398C174.77 16.971 175.157 15.447 177.589 15.939C180.471 16.521 180.746 20.216 179.089 21.617C177.531 22.935 173.965 21.512 174.517 18.398Z" fill="#CA4032"/>
<path d="M175.353 29.3479C174.334 28.7449 173.813 24.3409 175.078 23.4909C176.343 22.6419 179.233 23.9539 179.306 25.3209C179.38 26.6879 180.452 32.3679 175.353 29.3479Z" fill="#CA4032"/>
<path d="M185.811 10.673C186.254 9.47604 187.657 8.09604 188.696 8.74504C189.736 9.39404 190.191 12.469 188.618 13.347C187.045 14.225 184.992 12.888 185.811 10.673Z" fill="#CA4032"/>
<path d="M183.063 17.6509C183.523 16.5339 184.584 14.2329 187.149 15.0709C189.248 15.7569 188.954 19.5259 186.978 20.6739C184.563 22.0769 181.711 20.9359 183.063 17.6509Z" fill="#CA4032"/>
<path d="M181.028 28.03C180.808 26.435 180.749 22.216 184.379 22.532C187.213 22.779 186.322 26.252 185.551 28.198C184.921 29.791 181.714 32.992 181.028 28.03Z" fill="#CA4032"/>
<path d="M185.821 33.4601C185.904 32.8291 187.22 31.1181 189.069 31.8841C191.479 32.8821 190.853 34.3911 190.14 36.2401C189.427 38.0881 185.249 37.8271 185.821 33.4601Z" fill="#CA4032"/>
<path d="M188.363 28.287C188.241 27.396 189.189 25.225 191.216 26.098C193.243 26.971 193.122 28.598 192.434 29.516C191.746 30.434 188.908 32.258 188.363 28.287Z" fill="#CA4032"/>
<path d="M190.522 22.3741C190.603 21.3741 191.185 17.9761 193.105 19.2841C195.025 20.5911 194.461 23.6591 193.368 24.7151C192.857 25.2081 190.325 24.8051 190.522 22.3741Z" fill="#CA4032"/>
<path d="M165.93 56.1519C166.38 59.8329 180.412 63.9349 184.586 57.1569C188.76 50.3789 186.451 36.8039 182.076 34.4619C175.846 31.1279 171.607 33.3969 170.013 35.9359C168.303 38.6599 165.367 50.9789 169.546 53.0729C178.922 57.7689 183.608 51.8349 182.127 43.4519C180.912 36.5789 170.595 40.7009 172.352 43.2869C174.108 45.8729 177.394 40.8289 179.262 42.2029C181.129 43.5759 179.531 49.2989 174.991 50.7269C169.443 52.4719 168.177 41.8429 172.206 38.1559C175.833 34.8369 183.681 37.1019 184.29 44.7089C185.016 53.7679 181.51 58.2179 174.954 57.3729C172.587 57.0689 165.67 54.0259 165.93 56.1519Z" fill="#CA4032"/>
</svg>
