<svg width="600" height="150" viewBox="0 0 600 150" fill="none" xmlns="http://www.w3.org/2000/svg">
<g clip-path="url(#clip0_196_1903)">
<rect width="600" height="150" rx="24" fill="#FDF7F2"/>
<path d="M-88 83.3839C-71.4831 73.9646 -34.7213 53.3953 -19.809 46.4722C-1.16854 37.8182 -47.4157 92.9208 -28.7753 88.1524C-10.1348 83.3839 41.0674 -5.09819 48.1461 9.03069C55.2247 23.1596 8.74157 144.845 38.236 111.465C67.7303 78.0855 143 -23.1125 143.944 9.03069C144.888 41.1738 93.9214 130.362 130.494 106.873C167.067 83.3839 215.202 27.045 214.494 46.4722C213.787 65.8993 166.124 188.644 223.461 106.873C280.798 25.1022 312.888 -26.4683 311.236 5.67495C309.584 37.8182 271.831 121.002 298.73 106.873C325.629 92.7442 405.382 -23.8189 413.405 9.03069C421.427 41.8802 365.27 159.15 408.921 123.651C452.573 88.1524 521.708 -7.92408 534.213 27.0449C546.719 62.0139 476.169 193.766 521.708 140.959C567.247 88.1524 625.528 -26.6448 623.64 14.3289C621.753 55.3027 586.831 108.816 623.64 83.3839C653.088 63.0382 679.483 59.247 689 59.8946" stroke="#B75025" stroke-opacity="0.1" stroke-width="0.944047"/>
<rect x="187.742" y="54.059" width="224.517" height="41.882" rx="20.941" fill="white"/>
<rect x="187.742" y="54.059" width="224.517" height="41.882" rx="20.941" stroke="black" stroke-width="1.72043"/>
<path d="M242.996 79.6265C242.514 79.8785 242.021 80.0802 241.517 80.2314C241.013 80.3826 240.503 80.489 239.988 80.5506C239.479 80.6178 238.949 80.6514 238.4 80.6514C237.387 80.6514 236.477 80.5114 235.67 80.2314C234.869 79.9513 234.172 79.5397 233.579 78.9965C232.991 78.4476 232.548 77.8092 232.251 77.0812C231.96 76.3475 231.814 75.5439 231.814 74.6702C231.814 73.6677 231.988 72.7913 232.335 72.0408C232.682 71.2848 233.167 70.6575 233.789 70.1591C234.416 69.6607 235.127 69.2938 235.922 69.0586C236.723 68.8178 237.566 68.6974 238.451 68.6974C239.773 68.6974 241.271 68.9914 242.945 69.5795V72.6709C242.368 72.3124 241.797 72.0156 241.231 71.7804C240.671 71.5396 240.011 71.4192 239.249 71.4192C238.571 71.4192 237.938 71.5536 237.35 71.8224C236.762 72.0912 236.289 72.4749 235.931 72.9733C235.572 73.4717 235.393 74.0542 235.393 74.7206C235.393 75.3086 235.55 75.8491 235.863 76.3419C236.177 76.8291 236.611 77.2184 237.166 77.5096C237.726 77.7952 238.356 77.938 239.056 77.938C239.621 77.938 240.156 77.8708 240.66 77.7364C241.164 77.5964 241.587 77.4424 241.929 77.2744C242.276 77.1064 242.632 76.9075 242.996 76.6779V79.6265ZM257.562 74.6702C257.562 75.7567 257.31 76.7563 256.806 77.6692C256.308 78.5821 255.563 79.3073 254.572 79.8449C253.58 80.3826 252.373 80.6514 250.951 80.6514C249.512 80.6514 248.294 80.3714 247.297 79.8113C246.3 79.2513 245.558 78.5149 245.07 77.602C244.589 76.6891 244.348 75.7119 244.348 74.6702C244.348 73.6229 244.589 72.6457 245.07 71.7384C245.552 70.8255 246.291 70.0919 247.288 69.5375C248.291 68.9774 249.512 68.6974 250.951 68.6974C252.026 68.6974 252.984 68.857 253.824 69.1762C254.67 69.4955 255.364 69.9295 255.907 70.4783C256.45 71.0216 256.862 71.6572 257.142 72.3852C257.422 73.1077 257.562 73.8693 257.562 74.6702ZM253.983 74.6702C253.983 74.2334 253.919 73.8357 253.79 73.4773C253.661 73.1133 253.465 72.7997 253.202 72.5365C252.945 72.2676 252.628 72.0604 252.253 71.9148C251.878 71.7636 251.444 71.688 250.951 71.688C250.01 71.688 249.271 71.9624 248.733 72.5113C248.196 73.0601 247.927 73.7797 247.927 74.6702C247.927 75.5607 248.196 76.2831 248.733 76.8375C249.276 77.3864 250.016 77.6608 250.951 77.6608C251.595 77.6608 252.144 77.5348 252.597 77.2828C253.051 77.0252 253.395 76.6723 253.631 76.2243C253.866 75.7707 253.983 75.2526 253.983 74.6702ZM273.296 80.5002H269.785V73.7545L266.618 77.6608H266.341L263.165 73.7545V80.5002H259.755V68.857H262.938L266.517 73.2253L270.113 68.857H273.296V80.5002ZM279.765 80.5002H276.253V68.857H279.765V80.5002ZM295.348 80.5002H292.223L286.183 74.015V80.5002H282.705V68.857H285.822L291.845 75.3086V68.857H295.348V80.5002ZM309.259 79.6769C309.007 79.7721 308.791 79.8505 308.612 79.9121C308.433 79.9737 308.259 80.0298 308.091 80.0802C307.929 80.1306 307.691 80.195 307.377 80.2734C306.845 80.3966 306.313 80.489 305.781 80.5506C305.255 80.6178 304.698 80.6514 304.11 80.6514C302.928 80.6514 301.836 80.4358 300.833 80.0046C299.831 79.5733 299.027 78.9041 298.422 77.9968C297.823 77.0896 297.524 75.9751 297.524 74.6534C297.524 73.8021 297.678 72.9677 297.986 72.15C298.299 71.3268 298.775 70.6687 299.414 70.1759C299.94 69.7671 300.472 69.4563 301.01 69.2434C301.553 69.025 302.082 68.8794 302.597 68.8066C303.113 68.7338 303.681 68.6974 304.303 68.6974C305.328 68.6974 306.173 68.7758 306.84 68.9326C307.506 69.0838 308.237 69.2854 309.032 69.5375V72.2928C308.506 71.9848 307.949 71.7272 307.361 71.52C306.773 71.3128 306.039 71.2092 305.16 71.2092C304.146 71.2092 303.334 71.4024 302.723 71.7888C302.119 72.1696 301.696 72.6261 301.455 73.1581C301.22 73.6901 301.102 74.2054 301.102 74.7038C301.102 75.2918 301.239 75.8351 301.514 76.3335C301.788 76.8263 302.203 77.224 302.757 77.5264C303.312 77.8232 303.981 77.9716 304.765 77.9716C305.213 77.9716 305.689 77.9128 306.193 77.7952V76.4259H304.614V74.0822H309.259V79.6769ZM325.271 77.1148C325.271 77.8428 325.083 78.4728 324.708 79.0049C324.338 79.5369 323.82 79.9457 323.154 80.2314C322.487 80.5114 321.723 80.6514 320.86 80.6514C320.619 80.6514 320.323 80.6346 319.97 80.601C319.623 80.573 319.158 80.489 318.575 80.349C317.999 80.209 317.396 80.0018 316.769 79.7273V76.8711C317.357 77.2352 317.934 77.5376 318.5 77.7784C319.071 78.0192 319.681 78.1396 320.331 78.1396C320.93 78.1396 321.317 78.0416 321.49 77.8456C321.67 77.644 321.759 77.4564 321.759 77.2828C321.759 76.9692 321.608 76.7059 321.306 76.4931C321.003 76.2747 320.563 76.0507 319.987 75.8211C319.348 75.5523 318.788 75.261 318.307 74.9474C317.825 74.6282 317.43 74.2306 317.122 73.7545C316.82 73.2785 316.668 72.7157 316.668 72.066C316.668 71.4388 316.822 70.8731 317.13 70.3691C317.438 69.8595 317.909 69.4535 318.542 69.151C319.175 68.8486 319.947 68.6974 320.86 68.6974C321.51 68.6974 322.109 68.7618 322.658 68.8906C323.212 69.0138 323.669 69.1538 324.027 69.3106C324.386 69.4675 324.632 69.5907 324.767 69.6803V72.4105C324.291 72.0688 323.758 71.7636 323.17 71.4948C322.588 71.226 321.964 71.0916 321.297 71.0916C320.86 71.0916 320.544 71.1756 320.348 71.3436C320.152 71.5116 320.054 71.7188 320.054 71.9652C320.054 72.1948 320.152 72.3936 320.348 72.5617C320.544 72.7297 320.894 72.9341 321.398 73.1749C322.294 73.5949 323.011 73.973 323.548 74.309C324.086 74.645 324.506 75.0342 324.809 75.4767C325.117 75.9135 325.271 76.4595 325.271 77.1148ZM340.123 74.6702C340.123 75.7567 339.871 76.7563 339.367 77.6692C338.868 78.5821 338.123 79.3073 337.132 79.8449C336.141 80.3826 334.934 80.6514 333.512 80.6514C332.072 80.6514 330.854 80.3714 329.857 79.8113C328.86 79.2513 328.118 78.5149 327.631 77.602C327.149 76.6891 326.909 75.7119 326.909 74.6702C326.909 73.6229 327.149 72.6457 327.631 71.7384C328.113 70.8255 328.852 70.0919 329.849 69.5375C330.851 68.9774 332.072 68.6974 333.512 68.6974C334.587 68.6974 335.544 68.857 336.385 69.1762C337.23 69.4955 337.925 69.9295 338.468 70.4783C339.011 71.0216 339.423 71.6572 339.703 72.3852C339.983 73.1077 340.123 73.8693 340.123 74.6702ZM336.544 74.6702C336.544 74.2334 336.48 73.8357 336.351 73.4773C336.222 73.1133 336.026 72.7997 335.763 72.5365C335.505 72.2676 335.189 72.0604 334.814 71.9148C334.438 71.7636 334.004 71.688 333.512 71.688C332.571 71.688 331.831 71.9624 331.294 72.5113C330.756 73.0601 330.487 73.7797 330.487 74.6702C330.487 75.5607 330.756 76.2831 331.294 76.8375C331.837 77.3864 332.576 77.6608 333.512 77.6608C334.156 77.6608 334.704 77.5348 335.158 77.2828C335.612 77.0252 335.956 76.6723 336.191 76.2243C336.427 75.7707 336.544 75.2526 336.544 74.6702ZM354.773 74.6702C354.773 75.7567 354.521 76.7563 354.017 77.6692C353.519 78.5821 352.774 79.3073 351.783 79.8449C350.791 80.3826 349.585 80.6514 348.162 80.6514C346.723 80.6514 345.505 80.3714 344.508 79.8113C343.511 79.2513 342.769 78.5149 342.282 77.602C341.8 76.6891 341.559 75.7119 341.559 74.6702C341.559 73.6229 341.8 72.6457 342.282 71.7384C342.763 70.8255 343.503 70.0919 344.499 69.5375C345.502 68.9774 346.723 68.6974 348.162 68.6974C349.237 68.6974 350.195 68.857 351.035 69.1762C351.881 69.4955 352.575 69.9295 353.118 70.4783C353.662 71.0216 354.073 71.6572 354.353 72.3852C354.633 73.1077 354.773 73.8693 354.773 74.6702ZM351.195 74.6702C351.195 74.2334 351.13 73.8357 351.001 73.4773C350.873 73.1133 350.677 72.7997 350.413 72.5365C350.156 72.2676 349.839 72.0604 349.464 71.9148C349.089 71.7636 348.655 71.688 348.162 71.688C347.221 71.688 346.482 71.9624 345.944 72.5113C345.407 73.0601 345.138 73.7797 345.138 74.6702C345.138 75.5607 345.407 76.2831 345.944 76.8375C346.488 77.3864 347.227 77.6608 348.162 77.6608C348.806 77.6608 349.355 77.5348 349.809 77.2828C350.262 77.0252 350.607 76.6723 350.842 76.2243C351.077 75.7707 351.195 75.2526 351.195 74.6702ZM369.357 80.5002H366.232L360.192 74.015V80.5002H356.714V68.857H359.83L365.854 75.3086V68.857H369.357V80.5002Z" fill="#492C25"/>
<path d="M191.183 74.7048C191.183 65.2031 198.886 57.5005 208.387 57.5005H348.172V91.9092H208.387C198.885 91.9092 191.183 84.2065 191.183 74.7048Z" fill="#492C25"/>
<mask id="mask0_196_1903" style="mask-type:alpha" maskUnits="userSpaceOnUse" x="231" y="68" width="139" height="13">
<path d="M242.995 79.6265C242.514 79.8785 242.021 80.0801 241.517 80.2313C241.013 80.3825 240.503 80.4889 239.988 80.5505C239.478 80.6177 238.949 80.6513 238.4 80.6513C237.387 80.6513 236.476 80.5113 235.67 80.2313C234.869 79.9513 234.172 79.5397 233.578 78.9964C232.99 78.4476 232.548 77.8091 232.251 77.0811C231.96 76.3474 231.814 75.5438 231.814 74.6701C231.814 73.6677 231.988 72.7912 232.335 72.0408C232.682 71.2847 233.167 70.6575 233.788 70.159C234.416 69.6606 235.127 69.2938 235.922 69.0586C236.723 68.8178 237.566 68.6973 238.451 68.6973C239.772 68.6973 241.27 68.9914 242.945 69.5794V72.6708C242.368 72.3124 241.797 72.0156 241.231 71.7803C240.671 71.5395 240.01 71.4191 239.249 71.4191C238.571 71.4191 237.938 71.5535 237.35 71.8224C236.762 72.0912 236.289 72.4748 235.93 72.9732C235.572 73.4717 235.393 74.0541 235.393 74.7205C235.393 75.3086 235.55 75.849 235.863 76.3418C236.177 76.8291 236.611 77.2183 237.165 77.5095C237.725 77.7951 238.355 77.938 239.055 77.938C239.621 77.938 240.156 77.8707 240.66 77.7363C241.164 77.5963 241.587 77.4423 241.928 77.2743C242.276 77.1063 242.631 76.9075 242.995 76.6779V79.6265ZM257.562 74.6701C257.562 75.7566 257.31 76.7563 256.806 77.6691C256.307 78.582 255.563 79.3072 254.571 79.8449C253.58 80.3825 252.373 80.6513 250.951 80.6513C249.511 80.6513 248.293 80.3713 247.296 79.8113C246.3 79.2512 245.557 78.5148 245.07 77.6019C244.589 76.6891 244.348 75.7118 244.348 74.6701C244.348 73.6229 244.589 72.6456 245.07 71.7383C245.552 70.8255 246.291 70.0918 247.288 69.5374C248.29 68.9774 249.511 68.6973 250.951 68.6973C252.026 68.6973 252.984 68.857 253.824 69.1762C254.669 69.4954 255.364 69.9294 255.907 70.4783C256.45 71.0215 256.862 71.6571 257.142 72.3852C257.422 73.1076 257.562 73.8693 257.562 74.6701ZM253.983 74.6701C253.983 74.2333 253.919 73.8357 253.79 73.4773C253.661 73.1132 253.465 72.7996 253.202 72.5364C252.944 72.2676 252.628 72.0604 252.253 71.9148C251.878 71.7635 251.443 71.6879 250.951 71.6879C250.01 71.6879 249.271 71.9624 248.733 72.5112C248.195 73.06 247.926 73.7797 247.926 74.6701C247.926 75.5606 248.195 76.283 248.733 76.8375C249.276 77.3863 250.015 77.6607 250.951 77.6607C251.595 77.6607 252.144 77.5347 252.597 77.2827C253.051 77.0251 253.395 76.6723 253.63 76.2242C253.866 75.7706 253.983 75.2526 253.983 74.6701ZM273.296 80.5001H269.785V73.7545L266.618 77.6607H266.34L263.165 73.7545V80.5001H259.754V68.857H262.938L266.517 73.2252L270.112 68.857H273.296V80.5001ZM279.765 80.5001H276.253V68.857H279.765V80.5001ZM295.348 80.5001H292.223L286.183 74.0149V80.5001H282.705V68.857H285.821L291.845 75.3086V68.857H295.348V80.5001ZM309.259 79.6769C309.007 79.7721 308.791 79.8505 308.612 79.9121C308.433 79.9737 308.259 80.0297 308.091 80.0801C307.929 80.1305 307.691 80.1949 307.377 80.2733C306.845 80.3965 306.313 80.4889 305.781 80.5505C305.255 80.6177 304.697 80.6513 304.109 80.6513C302.928 80.6513 301.836 80.4357 300.833 80.0045C299.831 79.5733 299.027 78.904 298.422 77.9968C297.823 77.0895 297.523 75.975 297.523 74.6533C297.523 73.8021 297.677 72.9676 297.985 72.15C298.299 71.3267 298.775 70.6687 299.413 70.1758C299.94 69.767 300.472 69.4562 301.01 69.2434C301.553 69.025 302.082 68.8794 302.597 68.8066C303.112 68.7337 303.681 68.6973 304.303 68.6973C305.327 68.6973 306.173 68.7758 306.84 68.9326C307.506 69.0838 308.237 69.2854 309.032 69.5374V72.2928C308.506 71.9848 307.948 71.7271 307.36 71.5199C306.772 71.3127 306.039 71.2091 305.159 71.2091C304.146 71.2091 303.334 71.4023 302.723 71.7887C302.118 72.1696 301.696 72.626 301.455 73.158C301.22 73.6901 301.102 74.2053 301.102 74.7037C301.102 75.2918 301.239 75.835 301.514 76.3334C301.788 76.8263 302.202 77.2239 302.757 77.5263C303.311 77.8231 303.981 77.9716 304.765 77.9716C305.213 77.9716 305.689 77.9128 306.193 77.7951V76.4259H304.613V74.0821H309.259V79.6769ZM325.27 77.1147C325.27 77.8427 325.083 78.4728 324.707 79.0048C324.338 79.5369 323.82 79.9457 323.153 80.2313C322.487 80.5113 321.723 80.6513 320.86 80.6513C320.619 80.6513 320.322 80.6345 319.97 80.6009C319.622 80.5729 319.158 80.4889 318.575 80.3489C317.998 80.2089 317.396 80.0017 316.769 79.7273V76.8711C317.357 77.2351 317.934 77.5375 318.499 77.7783C319.071 78.0192 319.681 78.1396 320.331 78.1396C320.93 78.1396 321.316 78.0416 321.49 77.8455C321.669 77.6439 321.759 77.4563 321.759 77.2827C321.759 76.9691 321.608 76.7059 321.305 76.4931C321.003 76.2746 320.563 76.0506 319.986 75.821C319.348 75.5522 318.788 75.261 318.306 74.9474C317.825 74.6281 317.43 74.2305 317.122 73.7545C316.819 73.2784 316.668 72.7156 316.668 72.066C316.668 71.4387 316.822 70.8731 317.13 70.3691C317.438 69.8594 317.909 69.4534 318.541 69.151C319.174 68.8486 319.947 68.6973 320.86 68.6973C321.51 68.6973 322.109 68.7617 322.658 68.8906C323.212 69.0138 323.669 69.1538 324.027 69.3106C324.385 69.4674 324.632 69.5906 324.766 69.6802V72.4104C324.29 72.0688 323.758 71.7635 323.17 71.4947C322.588 71.2259 321.963 71.0915 321.297 71.0915C320.86 71.0915 320.544 71.1755 320.348 71.3435C320.152 71.5115 320.054 71.7187 320.054 71.9652C320.054 72.1948 320.152 72.3936 320.348 72.5616C320.544 72.7296 320.894 72.934 321.398 73.1748C322.294 73.5949 323.011 73.9729 323.548 74.3089C324.086 74.6449 324.506 75.0342 324.808 75.4766C325.116 75.9134 325.27 76.4595 325.27 77.1147ZM340.123 74.6701C340.123 75.7566 339.87 76.7563 339.366 77.6691C338.868 78.582 338.123 79.3072 337.132 79.8449C336.141 80.3825 334.934 80.6513 333.511 80.6513C332.072 80.6513 330.854 80.3713 329.857 79.8113C328.86 79.2512 328.118 78.5148 327.631 77.6019C327.149 76.6891 326.908 75.7118 326.908 74.6701C326.908 73.6229 327.149 72.6456 327.631 71.7383C328.113 70.8255 328.852 70.0918 329.849 69.5374C330.851 68.9774 332.072 68.6973 333.511 68.6973C334.587 68.6973 335.544 68.857 336.384 69.1762C337.23 69.4954 337.924 69.9294 338.468 70.4783C339.011 71.0215 339.422 71.6571 339.702 72.3852C339.982 73.1076 340.123 73.8693 340.123 74.6701ZM336.544 74.6701C336.544 74.2333 336.479 73.8357 336.351 73.4773C336.222 73.1132 336.026 72.7996 335.763 72.5364C335.505 72.2676 335.189 72.0604 334.813 71.9148C334.438 71.7635 334.004 71.6879 333.511 71.6879C332.57 71.6879 331.831 71.9624 331.294 72.5112C330.756 73.06 330.487 73.7797 330.487 74.6701C330.487 75.5606 330.756 76.283 331.294 76.8375C331.837 77.3863 332.576 77.6607 333.511 77.6607C334.155 77.6607 334.704 77.5347 335.158 77.2827C335.611 77.0251 335.956 76.6723 336.191 76.2242C336.426 75.7706 336.544 75.2526 336.544 74.6701ZM354.773 74.6701C354.773 75.7566 354.521 76.7563 354.017 77.6691C353.519 78.582 352.774 79.3072 351.782 79.8449C350.791 80.3825 349.584 80.6513 348.162 80.6513C346.723 80.6513 345.504 80.3713 344.508 79.8113C343.511 79.2512 342.769 78.5148 342.281 77.6019C341.8 76.6891 341.559 75.7118 341.559 74.6701C341.559 73.6229 341.8 72.6456 342.281 71.7383C342.763 70.8255 343.502 70.0918 344.499 69.5374C345.502 68.9774 346.723 68.6973 348.162 68.6973C349.237 68.6973 350.195 68.857 351.035 69.1762C351.88 69.4954 352.575 69.9294 353.118 70.4783C353.661 71.0215 354.073 71.6571 354.353 72.3852C354.633 73.1076 354.773 73.8693 354.773 74.6701ZM351.194 74.6701C351.194 74.2333 351.13 73.8357 351.001 73.4773C350.872 73.1132 350.676 72.7996 350.413 72.5364C350.156 72.2676 349.839 72.0604 349.464 71.9148C349.089 71.7635 348.655 71.6879 348.162 71.6879C347.221 71.6879 346.482 71.9624 345.944 72.5112C345.406 73.06 345.138 73.7797 345.138 74.6701C345.138 75.5606 345.406 76.283 345.944 76.8375C346.487 77.3863 347.227 77.6607 348.162 77.6607C348.806 77.6607 349.355 77.5347 349.808 77.2827C350.262 77.0251 350.606 76.6723 350.842 76.2242C351.077 75.7706 351.194 75.2526 351.194 74.6701ZM369.356 80.5001H366.231L360.191 74.0149V80.5001H356.714V68.857H359.83L365.853 75.3086V68.857H369.356V80.5001Z" fill="white"/>
</mask>
<g mask="url(#mask0_196_1903)">
<path d="M191.183 74.7045C191.183 65.2028 198.885 57.5001 208.387 57.5001H348.172V91.9088H208.387C198.885 91.9088 191.183 84.2062 191.183 74.7045Z" fill="white"/>
</g>
</g>
<rect x="0.5" y="0.5" width="599" height="149" rx="23.5" stroke="#492C25" stroke-opacity="0.04"/>
<defs>
<clipPath id="clip0_196_1903">
<rect width="600" height="150" rx="24" fill="white"/>
</clipPath>
</defs>
</svg>
