<svg width="668" height="52" viewBox="0 0 668 52" fill="none" xmlns="http://www.w3.org/2000/svg">
<path d="M23.8262 0.901367C28.8652 0.901367 33.8652 2.02441 38.8262 4.27051V11.5068C33.8652 8.9873 28.9824 7.72754 24.1777 7.72754C21.1895 7.72754 18.5332 8.32324 16.209 9.51465C13.8848 10.7061 12.0781 12.4248 10.7891 14.6709C9.51953 16.8975 8.88477 19.3877 8.88477 22.1416C8.88477 26.3213 10.2715 29.6904 13.0449 32.249C15.8379 34.7881 19.5098 36.0576 24.0605 36.0576C25.3105 36.0576 26.502 35.9502 27.6348 35.7354C28.7871 35.5205 30.1543 35.1104 31.7363 34.5049V27.708H24.9688V21.5264H39.6465V38.4014C37.6348 39.8076 35.2129 40.9111 32.3809 41.7119C29.5684 42.4932 26.6387 42.8838 23.5918 42.8838C19.2754 42.8838 15.3594 41.9951 11.8438 40.2178C8.34766 38.4404 5.61328 35.9502 3.64062 32.7471C1.6875 29.5439 0.710938 25.9697 0.710938 22.0244C0.710938 18.0205 1.69727 14.3975 3.66992 11.1553C5.66211 7.91309 8.42578 5.39355 11.9609 3.59668C15.5156 1.7998 19.4707 0.901367 23.8262 0.901367ZM60.7695 14.4658C63.6211 14.4658 66.209 15.0615 68.5332 16.2529C70.8574 17.4443 72.6543 19.1143 73.9238 21.2627C75.1934 23.4111 75.8281 25.8428 75.8281 28.5576C75.8281 31.3896 75.2129 33.8701 73.9824 35.999C72.7715 38.1279 70.9746 39.8076 68.5918 41.0381C66.2285 42.2686 63.6211 42.8838 60.7695 42.8838C57.8984 42.8838 55.291 42.2686 52.9473 41.0381C50.6035 39.8076 48.8164 38.1279 47.5859 35.999C46.375 33.8701 45.7695 31.3896 45.7695 28.5576C45.7695 25.8037 46.4141 23.3623 47.7031 21.2334C48.9922 19.085 50.7891 17.4248 53.0938 16.2529C55.3984 15.0615 57.957 14.4658 60.7695 14.4658ZM53.3281 28.5576C53.3281 31.292 53.9922 33.4795 55.3203 35.1201C56.668 36.7412 58.4648 37.5518 60.7109 37.5518C63.0547 37.5518 64.9004 36.7705 66.248 35.208C67.5957 33.6455 68.2695 31.4092 68.2695 28.499C68.2695 25.7256 67.5859 23.5869 66.2188 22.083C64.8711 20.5596 63.0352 19.7979 60.7109 19.7979C58.5234 19.7979 56.7461 20.5986 55.3789 22.2002C54.0117 23.8018 53.3281 25.9209 53.3281 28.5576ZM89.0996 7.72754H89.6855V14.9932H99.0605V20.4424H89.6855V33.0693C89.6855 34.2998 90.0566 35.2959 90.7988 36.0576C91.541 36.8193 92.5566 37.2002 93.8457 37.2002C95.5254 37.2002 97.459 36.5947 99.6465 35.3838V41.1553C97.0488 42.3076 94.6074 42.8838 92.3223 42.8838C89.2363 42.8838 86.8242 42.0439 85.0859 40.3643C83.3672 38.6846 82.5078 36.4092 82.5078 33.5381V20.4424H78.2305V19.2705L89.0996 7.72754ZM142.654 0.901367C146.775 0.901367 150.535 1.81934 153.934 3.65527C157.352 5.47168 160.027 8.00098 161.961 11.2432C163.914 14.4854 164.891 18.0205 164.891 21.8486C164.891 24.9541 164.227 27.9033 162.898 30.6963C161.59 33.4893 159.725 35.8721 157.303 37.8447C154.9 39.8174 152.176 41.1846 149.129 41.9463L149.07 42.3564C153.445 44.4268 157.342 45.4619 160.76 45.4619C162.029 45.4619 163.211 45.3057 164.305 44.9932L164.539 45.3447L157.947 51.292C151.307 50.8623 144.188 47.8643 136.59 42.2979C133.387 41.6729 130.477 40.3643 127.859 38.3721C125.262 36.3799 123.25 33.9482 121.824 31.0771C120.418 28.2061 119.715 25.1885 119.715 22.0244C119.715 18.1963 120.701 14.6123 122.674 11.2725C124.646 7.93262 127.352 5.37402 130.789 3.59668C134.227 1.7998 138.182 0.901367 142.654 0.901367ZM127.889 21.9658C127.889 26.1455 129.227 29.5439 131.902 32.1611C134.578 34.7588 138.094 36.0576 142.449 36.0576C145.145 36.0576 147.586 35.4619 149.773 34.2705C151.98 33.0596 153.689 31.3799 154.9 29.2314C156.131 27.083 156.746 24.6807 156.746 22.0244C156.746 19.29 156.141 16.8291 154.93 14.6416C153.719 12.4541 152.01 10.7549 149.803 9.54395C147.615 8.33301 145.164 7.72754 142.449 7.72754C138.094 7.72754 134.578 9.03613 131.902 11.6533C129.227 14.251 127.889 17.6885 127.889 21.9658ZM178.367 14.9932V31.9268C178.367 33.7041 178.807 35.0615 179.686 35.999C180.584 36.917 181.766 37.376 183.23 37.376C184.441 37.376 185.604 37.0049 186.717 36.2627C187.83 35.5205 188.729 34.4756 189.412 33.1279V14.9932H196.619V42.3564H189.412V38.6357C186.814 41.4678 184.002 42.8838 180.975 42.8838C178.045 42.8838 175.682 41.9268 173.885 40.0127C172.088 38.0986 171.189 35.5986 171.189 32.5127V14.9932H178.367ZM216.072 14.4658C220.096 14.4658 223.279 15.7549 225.623 18.333C227.967 20.9111 229.139 24.4756 229.139 29.0264V30.1104H209.773C210.066 32.5518 210.975 34.4365 212.498 35.7646C214.041 37.0732 216.15 37.7275 218.826 37.7275C220.545 37.7275 222.195 37.4346 223.777 36.8486C225.379 36.2432 227.029 35.335 228.729 34.124V39.4854C225.525 41.751 221.639 42.8838 217.068 42.8838C212.752 42.8838 209.227 41.585 206.492 38.9873C203.758 36.3896 202.391 32.9326 202.391 28.6162C202.391 24.4561 203.65 21.0576 206.17 18.4209C208.709 15.7842 212.01 14.4658 216.072 14.4658ZM222.371 25.7451C222.176 23.7529 221.57 22.2002 220.555 21.0869C219.539 19.9541 218.143 19.3877 216.365 19.3877C214.549 19.3877 213.084 19.9248 211.971 20.999C210.877 22.0732 210.184 23.6553 209.891 25.7451H222.371ZM243.699 14.4658C245.203 14.4658 246.619 14.6416 247.947 14.9932C249.275 15.3252 250.682 15.8623 252.166 16.6045V22.376C250.799 21.4971 249.334 20.7939 247.771 20.2666C246.209 19.7197 244.812 19.4463 243.582 19.4463C242.547 19.4463 241.736 19.6416 241.15 20.0322C240.564 20.4229 240.271 20.9795 240.271 21.7021C240.271 22.1123 240.516 22.5225 241.004 22.9326C241.492 23.3428 242.83 24.0947 245.018 25.1885C248.143 26.7705 250.33 28.2354 251.58 29.583C252.85 30.9111 253.484 32.5127 253.484 34.3877C253.484 37.0244 252.566 39.1045 250.73 40.6279C248.895 42.1318 246.414 42.8838 243.289 42.8838C241.336 42.8838 239.51 42.6689 237.811 42.2393C236.131 41.8096 234.734 41.292 233.621 40.6865V34.6807C237.137 36.6338 240.096 37.6104 242.498 37.6104C243.729 37.6104 244.725 37.3955 245.486 36.9658C246.248 36.5166 246.629 35.9307 246.629 35.208C246.629 34.7783 246.492 34.3877 246.219 34.0361C245.945 33.6846 245.535 33.3232 244.988 32.9521C244.441 32.5811 242.732 31.6924 239.861 30.2861C237.654 29.2314 236.023 28.0889 234.969 26.8584C233.914 25.6084 233.387 24.1338 233.387 22.4346C233.387 20.0127 234.334 18.0791 236.229 16.6338C238.123 15.1885 240.613 14.4658 243.699 14.4658ZM266.58 7.72754H267.166V14.9932H276.541V20.4424H267.166V33.0693C267.166 34.2998 267.537 35.2959 268.279 36.0576C269.021 36.8193 270.037 37.2002 271.326 37.2002C273.006 37.2002 274.939 36.5947 277.127 35.3838V41.1553C274.529 42.3076 272.088 42.8838 269.803 42.8838C266.717 42.8838 264.305 42.0439 262.566 40.3643C260.848 38.6846 259.988 36.4092 259.988 33.5381V20.4424H255.711V19.2705L266.58 7.72754ZM285.066 2.33691C286.18 2.33691 287.137 2.7373 287.938 3.53809C288.738 4.33887 289.139 5.2959 289.139 6.40918C289.139 7.4834 288.738 8.44043 287.938 9.28027C287.156 10.1006 286.199 10.5107 285.066 10.5107C283.973 10.5107 283.016 10.1006 282.195 9.28027C281.395 8.44043 280.994 7.4834 280.994 6.40918C280.994 5.27637 281.404 4.31934 282.225 3.53809C283.045 2.7373 283.992 2.33691 285.066 2.33691ZM288.67 14.9932V42.3564H281.463V14.9932H288.67ZM309.676 14.4658C312.527 14.4658 315.115 15.0615 317.439 16.2529C319.764 17.4443 321.561 19.1143 322.83 21.2627C324.1 23.4111 324.734 25.8428 324.734 28.5576C324.734 31.3896 324.119 33.8701 322.889 35.999C321.678 38.1279 319.881 39.8076 317.498 41.0381C315.135 42.2686 312.527 42.8838 309.676 42.8838C306.805 42.8838 304.197 42.2686 301.854 41.0381C299.51 39.8076 297.723 38.1279 296.492 35.999C295.281 33.8701 294.676 31.3896 294.676 28.5576C294.676 25.8037 295.32 23.3623 296.609 21.2334C297.898 19.085 299.695 17.4248 302 16.2529C304.305 15.0615 306.863 14.4658 309.676 14.4658ZM302.234 28.5576C302.234 31.292 302.898 33.4795 304.227 35.1201C305.574 36.7412 307.371 37.5518 309.617 37.5518C311.961 37.5518 313.807 36.7705 315.154 35.208C316.502 33.6455 317.176 31.4092 317.176 28.499C317.176 25.7256 316.492 23.5869 315.125 22.083C313.777 20.5596 311.941 19.7979 309.617 19.7979C307.43 19.7979 305.652 20.5986 304.285 22.2002C302.918 23.8018 302.234 25.9209 302.234 28.5576ZM346.355 14.4658C349.285 14.4658 351.619 15.4326 353.357 17.3662C355.115 19.2803 355.994 21.8096 355.994 24.9541V42.3564H348.816V25.6865C348.816 23.9092 348.387 22.5029 347.527 21.4678C346.688 20.4326 345.535 19.915 344.07 19.915C342.957 19.915 341.912 20.2471 340.936 20.9111C339.959 21.5557 338.885 22.6396 337.713 24.1631V42.3564H330.506V14.9932H337.713V18.8311C339.041 17.2686 340.398 16.1553 341.785 15.4912C343.191 14.8076 344.715 14.4658 346.355 14.4658ZM371.844 14.4658C373.348 14.4658 374.764 14.6416 376.092 14.9932C377.42 15.3252 378.826 15.8623 380.311 16.6045V22.376C378.943 21.4971 377.479 20.7939 375.916 20.2666C374.354 19.7197 372.957 19.4463 371.727 19.4463C370.691 19.4463 369.881 19.6416 369.295 20.0322C368.709 20.4229 368.416 20.9795 368.416 21.7021C368.416 22.1123 368.66 22.5225 369.148 22.9326C369.637 23.3428 370.975 24.0947 373.162 25.1885C376.287 26.7705 378.475 28.2354 379.725 29.583C380.994 30.9111 381.629 32.5127 381.629 34.3877C381.629 37.0244 380.711 39.1045 378.875 40.6279C377.039 42.1318 374.559 42.8838 371.434 42.8838C369.48 42.8838 367.654 42.6689 365.955 42.2393C364.275 41.8096 362.879 41.292 361.766 40.6865V34.6807C365.281 36.6338 368.24 37.6104 370.643 37.6104C371.873 37.6104 372.869 37.3955 373.631 36.9658C374.393 36.5166 374.773 35.9307 374.773 35.208C374.773 34.7783 374.637 34.3877 374.363 34.0361C374.09 33.6846 373.68 33.3232 373.133 32.9521C372.586 32.5811 370.877 31.6924 368.006 30.2861C365.799 29.2314 364.168 28.0889 363.113 26.8584C362.059 25.6084 361.531 24.1338 361.531 22.4346C361.531 20.0127 362.479 18.0791 364.373 16.6338C366.268 15.1885 368.758 14.4658 371.844 14.4658ZM392.557 0.901367C395.564 0.901367 397.957 1.68262 399.734 3.24512C401.512 4.80762 402.4 6.86816 402.4 9.42676C402.4 11.1064 402.039 12.8252 401.316 14.583C400.594 16.3213 399.295 18.46 397.42 20.999C396.131 22.7373 395.164 24.2607 394.52 25.5693C393.895 26.8779 393.582 28.1182 393.582 29.29C393.582 29.7588 393.465 30.1494 393.23 30.4619C392.996 30.7549 392.693 30.9014 392.322 30.9014C391.443 30.9014 390.691 30.2568 390.066 28.9678C389.441 27.6787 389.129 26.2627 389.129 24.7197C389.129 23.3525 389.412 21.9658 389.979 20.5596C390.545 19.1338 391.443 17.5029 392.674 15.667C394.041 13.6357 394.725 11.8682 394.725 10.3643C394.725 9.29004 394.393 8.4502 393.729 7.84473C393.084 7.21973 392.176 6.90723 391.004 6.90723C389.617 6.90723 388.279 7.4248 386.99 8.45996H386.609L387.752 1.92676C388.143 1.71191 388.904 1.4873 390.037 1.25293C391.189 1.01855 392.029 0.901367 392.557 0.901367ZM392.967 33.8896C394.139 33.8896 395.184 34.3486 396.102 35.2666C397.02 36.1846 397.479 37.2295 397.479 38.4014C397.479 39.5537 397.029 40.5889 396.131 41.5068C395.252 42.4248 394.197 42.8838 392.967 42.8838C391.736 42.8838 390.682 42.4443 389.803 41.5654C388.924 40.667 388.484 39.6123 388.484 38.4014C388.484 37.21 388.934 36.165 389.832 35.2666C390.75 34.3486 391.795 33.8896 392.967 33.8896ZM434.129 1.42871V36.1748H453.992V42.3564H426.219V1.42871H434.129ZM470.779 14.4658C474.803 14.4658 477.986 15.7549 480.33 18.333C482.674 20.9111 483.846 24.4756 483.846 29.0264V30.1104H464.48C464.773 32.5518 465.682 34.4365 467.205 35.7646C468.748 37.0732 470.857 37.7275 473.533 37.7275C475.252 37.7275 476.902 37.4346 478.484 36.8486C480.086 36.2432 481.736 35.335 483.436 34.124V39.4854C480.232 41.751 476.346 42.8838 471.775 42.8838C467.459 42.8838 463.934 41.585 461.199 38.9873C458.465 36.3896 457.098 32.9326 457.098 28.6162C457.098 24.4561 458.357 21.0576 460.877 18.4209C463.416 15.7842 466.717 14.4658 470.779 14.4658ZM477.078 25.7451C476.883 23.7529 476.277 22.2002 475.262 21.0869C474.246 19.9541 472.85 19.3877 471.072 19.3877C469.256 19.3877 467.791 19.9248 466.678 20.999C465.584 22.0732 464.891 23.6553 464.598 25.7451H477.078ZM497.029 7.72754H497.615V14.9932H506.99V20.4424H497.615V33.0693C497.615 34.2998 497.986 35.2959 498.729 36.0576C499.471 36.8193 500.486 37.2002 501.775 37.2002C503.455 37.2002 505.389 36.5947 507.576 35.3838V41.1553C504.979 42.3076 502.537 42.8838 500.252 42.8838C497.166 42.8838 494.754 42.0439 493.016 40.3643C491.297 38.6846 490.438 36.4092 490.438 33.5381V20.4424H486.16V19.2705L497.029 7.72754ZM515.281 0.901367C516.844 0.901367 518.094 1.4873 519.031 2.65918C519.969 3.81152 520.438 5.34473 520.438 7.25879C520.438 9.83691 519.568 12.1318 517.83 14.1436C516.111 16.1357 514.002 17.3174 511.502 17.6885V16.1357C513.377 14.5537 514.314 12.4932 514.314 9.9541L514.256 9.0459C512.049 8.63574 510.945 7.29785 510.945 5.03223C510.945 3.87988 511.355 2.90332 512.176 2.10254C513.016 1.30176 514.051 0.901367 515.281 0.901367ZM532.332 14.4658C533.836 14.4658 535.252 14.6416 536.58 14.9932C537.908 15.3252 539.314 15.8623 540.799 16.6045V22.376C539.432 21.4971 537.967 20.7939 536.404 20.2666C534.842 19.7197 533.445 19.4463 532.215 19.4463C531.18 19.4463 530.369 19.6416 529.783 20.0322C529.197 20.4229 528.904 20.9795 528.904 21.7021C528.904 22.1123 529.148 22.5225 529.637 22.9326C530.125 23.3428 531.463 24.0947 533.65 25.1885C536.775 26.7705 538.963 28.2354 540.213 29.583C541.482 30.9111 542.117 32.5127 542.117 34.3877C542.117 37.0244 541.199 39.1045 539.363 40.6279C537.527 42.1318 535.047 42.8838 531.922 42.8838C529.969 42.8838 528.143 42.6689 526.443 42.2393C524.764 41.8096 523.367 41.292 522.254 40.6865V34.6807C525.77 36.6338 528.729 37.6104 531.131 37.6104C532.361 37.6104 533.357 37.3955 534.119 36.9658C534.881 36.5166 535.262 35.9307 535.262 35.208C535.262 34.7783 535.125 34.3877 534.852 34.0361C534.578 33.6846 534.168 33.3232 533.621 32.9521C533.074 32.5811 531.365 31.6924 528.494 30.2861C526.287 29.2314 524.656 28.0889 523.602 26.8584C522.547 25.6084 522.02 24.1338 522.02 22.4346C522.02 20.0127 522.967 18.0791 524.861 16.6338C526.756 15.1885 529.246 14.4658 532.332 14.4658ZM595.057 1.42871V7.61035H580.525V42.3564H572.615V7.61035H558.084V1.42871H595.057ZM604.607 14.4658C608.123 14.4658 610.809 15.2178 612.664 16.7217C614.52 18.2061 615.447 20.2861 615.447 22.9619V36.3506C615.447 37.3857 615.867 37.9033 616.707 37.9033C617.059 37.9033 617.547 37.7568 618.172 37.4639C618.816 37.1514 619.354 36.7998 619.783 36.4092V40.5693C617.264 42.1123 614.959 42.8838 612.869 42.8838C611.58 42.8838 610.584 42.6689 609.881 42.2393C609.197 41.8096 608.719 41.0479 608.445 39.9541C605.691 41.9072 602.928 42.8838 600.154 42.8838C598.182 42.8838 596.482 42.2197 595.057 40.8916C593.65 39.5635 592.947 37.9717 592.947 36.1162C592.947 33.7529 593.65 31.8877 595.057 30.5205C596.463 29.1533 598.924 27.9619 602.439 26.9463L608.27 25.2471V23.9873C608.27 21.3115 606.648 19.9736 603.406 19.9736C601.746 19.9736 600.096 20.3545 598.455 21.1162C596.814 21.8779 595.32 23.001 593.973 24.4854V18.0107C596.961 15.6475 600.506 14.4658 604.607 14.4658ZM600.213 35.0322C600.213 36.0283 600.525 36.8291 601.15 37.4346C601.795 38.04 602.586 38.3428 603.523 38.3428C605.105 38.3428 606.688 37.6201 608.27 36.1748V28.9678C606.258 29.6514 604.676 30.2959 603.523 30.9014C602.391 31.5068 601.551 32.1221 601.004 32.7471C600.477 33.3721 600.213 34.1338 600.213 35.0322ZM631.209 1.42871V42.3564H624.002V1.42871H631.209ZM645.857 1.42871V42.3564H638.65V1.42871H645.857ZM665.721 14.9932L654.617 28.499L667.098 42.3564H657.957L645.975 28.499L657.254 14.9932H665.721Z" fill="#492C25"/>
</svg>
